<svg id="svg" version="1.1" xmlns="http://www.w3.org/2000/svg" xmlns:xlink="http://www.w3.org/1999/xlink" width="400" height="400" viewBox="0, 0, 400,400"><g id="svgg"><path id="path0" d="M165.200 119.346 C 158.251 121.639,154.694 128.967,157.214 135.800 C 158.066 138.108,159.280 139.383,188.939 169.100 L 219.778 200.000 188.952 230.900 C 154.146 265.789,156.143 263.428,156.478 269.294 C 156.966 277.867,165.088 283.276,173.085 280.354 C 175.448 279.491,244.885 211.090,247.956 206.600 C 250.671 202.631,250.670 197.364,247.954 193.400 C 246.650 191.496,176.738 121.664,175.000 120.529 C 172.459 118.869,168.202 118.355,165.200 119.346 " stroke="none" fill="#fbfbfc" fill-rule="evenodd"></path><path id="path1" d="M184.744 49.967 C 184.601 50.398,183.863 50.511,181.652 50.439 C 179.988 50.385,178.523 50.532,178.219 50.784 C 177.928 51.026,176.995 51.281,176.145 51.351 C 175.295 51.420,174.268 51.621,173.862 51.796 C 173.456 51.971,172.286 52.124,171.262 52.135 C 170.238 52.146,169.292 52.311,169.161 52.503 C 169.029 52.694,168.129 52.884,167.161 52.925 C 166.015 52.974,165.156 53.266,164.700 53.761 C 164.315 54.180,164.000 54.315,164.000 54.061 C 164.000 53.478,162.516 53.451,162.323 54.031 C 162.244 54.268,161.554 54.493,160.790 54.531 C 160.025 54.569,159.310 54.710,159.200 54.844 C 158.804 55.327,153.779 56.940,152.878 56.873 C 152.356 56.835,152.063 56.978,152.202 57.203 C 152.347 57.438,151.856 57.600,151.000 57.600 C 150.137 57.600,149.653 57.761,149.800 58.000 C 149.936 58.220,149.754 58.400,149.395 58.400 C 149.036 58.400,148.467 58.676,148.129 59.014 C 147.690 59.453,147.372 59.508,147.011 59.209 C 146.650 58.910,146.369 58.955,146.027 59.367 C 145.764 59.684,145.204 59.878,144.782 59.797 C 144.358 59.715,144.057 59.853,144.108 60.106 C 144.159 60.358,143.765 60.572,143.233 60.582 C 142.702 60.592,142.192 60.825,142.100 61.100 C 142.008 61.375,141.668 61.600,141.343 61.600 C 141.018 61.600,140.849 61.756,140.967 61.946 C 141.084 62.136,140.467 62.232,139.594 62.158 C 138.722 62.084,138.027 62.153,138.051 62.312 C 138.167 63.076,137.943 63.536,137.343 63.766 C 136.769 63.987,136.757 63.932,137.243 63.327 C 137.641 62.832,137.353 62.908,136.229 63.594 C 135.365 64.121,134.791 64.338,134.953 64.076 C 135.115 63.814,135.076 63.600,134.866 63.600 C 134.657 63.600,134.378 63.881,134.246 64.225 C 134.114 64.569,133.846 64.752,133.651 64.632 C 133.087 64.283,130.715 65.639,130.509 66.428 C 130.308 67.193,129.200 67.837,129.200 67.187 C 129.200 66.974,129.001 66.800,128.757 66.800 C 128.514 66.800,128.423 67.082,128.555 67.426 C 128.743 67.917,128.610 67.994,127.937 67.780 C 127.283 67.572,127.133 67.647,127.304 68.095 C 127.470 68.526,127.273 68.654,126.565 68.576 C 126.034 68.518,125.600 68.635,125.600 68.835 C 125.600 69.036,125.306 69.200,124.947 69.200 C 124.588 69.200,123.999 69.539,123.640 69.954 C 123.280 70.369,122.124 71.114,121.071 71.609 C 119.868 72.174,119.231 72.704,119.358 73.034 C 119.485 73.367,119.347 73.478,118.980 73.337 C 118.661 73.214,118.400 73.324,118.400 73.581 C 118.400 73.837,118.235 73.945,118.032 73.820 C 117.830 73.695,117.393 73.864,117.061 74.196 C 116.729 74.528,116.264 74.800,116.029 74.800 C 115.793 74.800,115.600 74.991,115.600 75.224 C 115.600 75.457,115.392 75.519,115.138 75.362 C 114.882 75.204,114.784 75.250,114.918 75.467 C 115.179 75.889,113.858 77.200,113.172 77.200 C 112.941 77.200,112.866 76.975,113.005 76.700 C 113.144 76.425,112.833 76.695,112.314 77.300 C 111.795 77.905,111.017 78.413,110.585 78.428 C 109.817 78.456,109.817 78.463,110.571 78.758 C 111.288 79.039,111.293 79.079,110.635 79.331 C 110.246 79.481,109.783 79.513,109.606 79.404 C 109.429 79.294,109.173 79.492,109.039 79.844 C 108.887 80.238,108.543 80.387,108.140 80.232 C 107.590 80.021,107.568 80.080,108.000 80.600 C 108.437 81.126,108.406 81.177,107.791 80.941 C 107.294 80.750,107.159 80.810,107.358 81.132 C 107.617 81.551,107.145 81.781,106.300 81.647 C 106.135 81.621,106.000 81.864,106.000 82.186 C 106.000 82.858,104.826 83.573,104.134 83.324 C 103.878 83.232,103.550 83.526,103.407 83.978 C 103.263 84.430,102.978 84.800,102.773 84.800 C 102.568 84.800,102.445 85.025,102.500 85.300 C 102.558 85.589,102.287 85.746,101.860 85.673 C 101.416 85.597,101.225 85.717,101.383 85.973 C 101.529 86.208,101.446 86.400,101.200 86.400 C 100.954 86.400,100.835 86.535,100.934 86.700 C 101.034 86.865,100.878 87.220,100.587 87.488 C 100.171 87.873,100.017 87.873,99.861 87.488 C 99.708 87.112,99.656 87.115,99.632 87.500 C 99.614 87.775,99.319 88.000,98.976 88.000 C 98.633 88.000,98.464 88.180,98.600 88.400 C 98.736 88.620,98.646 88.800,98.400 88.800 C 98.149 88.800,98.084 89.019,98.253 89.300 C 98.428 89.591,98.239 89.549,97.802 89.200 C 97.118 88.654,97.074 88.665,97.321 89.321 C 97.469 89.717,97.433 89.944,97.241 89.825 C 97.048 89.706,96.668 89.877,96.396 90.204 C 96.000 90.682,96.010 90.805,96.451 90.825 C 96.753 90.839,96.583 91.018,96.074 91.222 C 95.565 91.426,95.260 91.773,95.395 91.992 C 95.543 92.231,95.365 92.285,94.951 92.126 C 94.456 91.936,94.323 92.023,94.480 92.433 C 94.601 92.747,94.452 93.235,94.150 93.518 C 93.635 93.998,93.429 93.841,93.563 93.070 C 93.594 92.889,93.426 92.860,93.189 93.007 C 92.952 93.153,92.827 93.480,92.911 93.733 C 92.995 93.985,92.645 94.522,92.132 94.925 C 91.619 95.328,91.200 95.934,91.200 96.272 C 91.200 96.651,90.972 96.798,90.605 96.657 C 90.261 96.525,90.050 96.634,90.105 96.914 C 90.160 97.195,89.872 97.343,89.422 97.264 C 88.747 97.147,88.715 97.215,89.178 97.774 C 89.644 98.335,89.615 98.383,88.957 98.145 C 88.540 97.995,88.333 98.019,88.495 98.198 C 88.657 98.377,88.207 99.080,87.495 99.761 C 86.783 100.441,86.245 101.044,86.300 101.099 C 86.355 101.155,86.397 101.425,86.394 101.700 C 86.390 102.033,86.258 102.000,86.000 101.600 C 85.671 101.091,85.611 101.110,85.606 101.724 C 85.603 102.122,85.437 102.346,85.237 102.223 C 85.038 102.100,84.977 102.390,85.102 102.867 C 85.282 103.556,85.191 103.682,84.664 103.480 C 84.293 103.338,84.000 103.419,84.000 103.666 C 84.000 103.908,83.623 104.433,83.163 104.832 C 82.668 105.261,82.450 105.757,82.629 106.047 C 82.834 106.378,82.731 106.459,82.311 106.298 C 81.850 106.121,81.742 106.258,81.892 106.830 C 82.006 107.268,81.890 107.600,81.623 107.600 C 81.364 107.600,81.267 107.375,81.406 107.100 C 81.545 106.825,81.403 106.912,81.090 107.294 C 80.777 107.675,80.375 107.855,80.196 107.694 C 80.018 107.532,80.003 107.628,80.164 107.907 C 80.324 108.185,80.668 108.307,80.928 108.177 C 81.187 108.047,81.051 108.224,80.624 108.570 C 80.196 108.917,79.701 109.200,79.524 109.200 C 79.346 109.200,79.200 109.481,79.200 109.824 C 79.200 110.178,79.009 110.329,78.757 110.174 C 78.455 109.987,78.406 110.189,78.603 110.810 C 78.834 111.536,78.765 111.672,78.267 111.481 C 77.831 111.314,77.709 111.419,77.865 111.825 C 78.023 112.238,77.899 112.336,77.440 112.160 C 76.974 111.981,76.856 112.082,77.023 112.515 C 77.150 112.847,77.034 113.255,76.765 113.421 C 76.432 113.627,76.379 113.557,76.600 113.200 C 76.816 112.851,76.767 112.773,76.455 112.966 C 76.198 113.125,76.098 113.435,76.234 113.654 C 76.369 113.874,76.147 114.326,75.740 114.659 C 75.046 115.228,75.045 115.251,75.721 115.037 C 76.142 114.904,76.340 114.973,76.197 115.205 C 76.063 115.422,75.693 115.600,75.376 115.600 C 75.059 115.600,74.800 115.881,74.800 116.224 C 74.800 116.567,74.608 116.729,74.373 116.583 C 74.139 116.438,73.980 116.563,74.021 116.860 C 74.160 117.873,74.001 118.448,73.643 118.226 C 73.446 118.105,73.173 118.454,73.035 119.003 C 72.897 119.551,72.518 120.000,72.192 120.000 C 71.867 120.000,71.600 120.332,71.600 120.738 C 71.600 121.144,71.240 121.802,70.800 122.200 C 69.944 122.974,69.693 123.837,70.462 123.362 C 70.748 123.185,70.815 123.252,70.638 123.538 C 70.481 123.792,70.093 124.000,69.776 124.000 C 69.459 124.000,69.200 124.360,69.200 124.800 C 69.200 125.240,69.026 125.600,68.813 125.600 C 68.599 125.600,68.528 125.868,68.654 126.197 C 68.783 126.532,68.613 126.897,68.267 127.030 C 67.928 127.160,67.748 127.521,67.868 127.833 C 68.005 128.191,67.824 128.400,67.376 128.400 C 66.986 128.400,66.786 128.519,66.931 128.665 C 67.077 128.810,66.747 129.518,66.198 130.238 C 65.098 131.680,64.937 132.183,65.700 131.789 C 65.975 131.647,65.753 131.894,65.206 132.338 C 64.659 132.782,64.336 133.269,64.487 133.420 C 64.638 133.571,64.487 133.970,64.151 134.306 C 63.654 134.803,63.639 134.978,64.070 135.252 C 64.470 135.505,64.477 135.589,64.100 135.594 C 63.825 135.597,63.600 135.870,63.600 136.200 C 63.600 136.530,63.420 136.800,63.200 136.800 C 62.980 136.800,62.821 136.935,62.847 137.100 C 62.980 137.940,62.751 138.417,62.337 138.161 C 62.022 137.966,61.944 138.142,62.093 138.712 C 62.228 139.227,62.094 139.632,61.746 139.765 C 61.373 139.908,61.262 140.308,61.420 140.937 C 61.590 141.614,61.464 141.966,60.987 142.150 C 60.503 142.335,60.384 142.683,60.563 143.393 C 60.765 144.201,60.689 144.332,60.139 144.121 C 59.707 143.955,59.565 144.020,59.741 144.304 C 59.891 144.547,59.830 144.858,59.605 144.997 C 59.329 145.168,59.330 145.495,59.608 146.015 C 59.954 146.661,59.907 146.740,59.309 146.516 C 58.687 146.283,58.667 146.333,59.149 146.925 C 59.649 147.539,59.503 147.774,58.700 147.647 C 58.535 147.621,58.400 148.050,58.400 148.600 C 58.400 149.150,58.220 149.600,58.000 149.600 C 57.780 149.600,57.600 150.219,57.600 150.976 C 57.600 151.733,57.420 152.464,57.200 152.600 C 56.980 152.736,56.800 153.197,56.800 153.624 C 56.800 154.051,56.659 154.400,56.487 154.400 C 56.315 154.400,56.136 154.860,56.090 155.422 C 56.037 156.060,56.166 156.345,56.432 156.180 C 56.926 155.875,55.980 157.670,55.442 158.060 C 55.245 158.202,55.202 158.627,55.346 159.004 C 55.529 159.479,55.444 159.626,55.071 159.483 C 54.663 159.326,54.542 159.750,54.567 161.238 C 54.589 162.559,54.437 163.200,54.100 163.200 C 53.825 163.200,53.621 163.335,53.647 163.500 C 53.862 164.857,53.544 166.536,53.174 166.000 C 52.870 165.560,52.792 165.960,52.880 167.500 C 52.946 168.655,52.846 169.600,52.657 169.600 C 52.469 169.600,52.416 169.864,52.540 170.187 C 52.664 170.510,52.593 170.881,52.383 171.011 C 52.172 171.141,52.000 171.687,52.000 172.224 C 52.000 172.761,51.856 173.200,51.680 173.200 C 51.504 173.200,51.380 174.055,51.404 175.100 C 51.428 176.145,51.208 177.405,50.915 177.900 C 50.569 178.484,50.534 178.800,50.814 178.800 C 51.052 178.800,51.130 178.990,50.986 179.222 C 50.843 179.454,50.634 180.579,50.523 181.722 C 50.412 182.865,50.113 184.060,49.860 184.377 C 49.505 184.822,49.514 184.885,49.900 184.653 C 50.175 184.488,50.400 184.543,50.400 184.776 C 50.400 185.009,50.250 185.200,50.067 185.200 C 49.575 185.200,49.650 186.552,50.161 186.894 C 50.458 187.093,50.463 187.190,50.175 187.194 C 49.916 187.198,49.733 188.379,49.707 190.204 C 49.680 192.151,49.808 193.119,50.072 192.955 C 50.328 192.797,50.319 193.004,50.046 193.513 C 49.538 194.463,49.531 212.237,50.039 213.239 C 50.232 213.620,50.169 214.073,49.881 214.364 C 49.506 214.743,49.542 214.930,50.046 215.215 C 50.462 215.449,50.627 215.925,50.508 216.545 C 50.407 217.076,50.538 217.910,50.799 218.398 C 51.143 219.040,51.153 219.407,50.837 219.723 C 50.309 220.251,50.257 221.881,50.762 222.067 C 50.961 222.140,51.186 222.740,51.262 223.400 C 51.338 224.060,51.670 224.840,52.000 225.133 C 52.520 225.594,52.494 225.631,51.800 225.409 C 51.158 225.203,51.099 225.252,51.500 225.656 C 51.775 225.933,52.000 226.718,52.000 227.400 C 52.000 228.082,52.223 228.863,52.497 229.137 C 52.892 229.532,52.872 229.718,52.397 230.047 C 51.947 230.359,51.923 230.511,52.300 230.664 C 52.598 230.785,52.802 231.620,52.806 232.733 C 52.811 234.086,52.919 234.435,53.200 234.000 C 53.550 233.459,53.845 234.846,53.647 236.100 C 53.621 236.265,53.780 236.400,54.000 236.400 C 54.220 236.400,54.397 236.715,54.394 237.100 C 54.389 237.698,54.331 237.713,54.000 237.200 C 53.767 236.839,53.610 236.790,53.606 237.076 C 53.603 237.338,53.760 237.651,53.955 237.772 C 54.150 237.893,54.426 238.615,54.569 239.377 C 54.771 240.450,54.984 240.714,55.515 240.544 C 56.041 240.375,56.074 240.414,55.657 240.712 C 55.108 241.105,55.352 242.800,55.958 242.800 C 56.125 242.800,56.182 243.340,56.085 244.000 C 55.980 244.720,56.087 245.200,56.355 245.200 C 56.600 245.200,56.800 245.524,56.800 245.920 C 56.800 246.316,57.025 246.882,57.300 247.179 C 57.706 247.617,57.688 247.656,57.200 247.390 C 56.714 247.125,56.723 247.209,57.248 247.831 C 57.604 248.254,57.814 248.825,57.714 249.100 C 57.615 249.375,57.773 249.603,58.067 249.606 C 58.467 249.611,58.450 249.709,58.000 250.000 C 57.600 250.258,57.567 250.390,57.900 250.394 C 58.175 250.397,58.400 250.670,58.400 251.000 C 58.400 251.330,58.601 251.600,58.847 251.600 C 59.110 251.600,59.213 252.020,59.098 252.623 C 58.983 253.223,59.145 253.888,59.490 254.233 C 59.813 254.556,59.978 255.080,59.856 255.397 C 59.735 255.715,59.835 256.098,60.079 256.249 C 60.367 256.427,60.410 256.339,60.200 256.000 C 59.990 255.661,60.033 255.573,60.321 255.751 C 60.565 255.902,60.663 256.292,60.538 256.618 C 60.413 256.944,60.509 257.449,60.752 257.742 C 60.994 258.034,61.075 258.392,60.930 258.537 C 60.785 258.682,60.871 258.800,61.121 258.800 C 61.371 258.800,61.471 259.070,61.345 259.400 C 61.201 259.773,61.347 260.000,61.731 260.000 C 62.175 260.000,62.295 260.288,62.160 261.032 C 62.042 261.680,62.127 261.969,62.386 261.808 C 62.614 261.668,62.800 261.743,62.800 261.976 C 62.800 262.209,63.178 262.778,63.640 263.240 C 64.251 263.851,64.360 264.200,64.040 264.520 C 63.421 265.139,63.492 265.727,64.155 265.473 C 64.539 265.325,64.650 265.488,64.515 266.005 C 64.407 266.415,64.608 267.161,64.960 267.664 C 65.312 268.167,65.600 268.358,65.600 268.089 C 65.600 267.820,65.810 267.600,66.067 267.600 C 66.323 267.600,66.415 267.718,66.270 267.863 C 66.125 268.008,66.230 268.403,66.503 268.740 C 66.900 269.229,66.899 269.293,66.500 269.053 C 66.225 268.888,66.000 268.943,66.000 269.176 C 66.000 269.409,66.264 269.600,66.587 269.600 C 66.971 269.600,67.086 269.831,66.919 270.266 C 66.728 270.765,66.806 270.846,67.232 270.589 C 67.723 270.293,67.723 270.342,67.232 270.946 C 66.742 271.550,66.742 271.628,67.232 271.523 C 67.545 271.455,67.752 271.635,67.693 271.921 C 67.634 272.208,67.861 272.718,68.197 273.054 C 68.532 273.390,68.705 273.830,68.580 274.032 C 68.455 274.235,68.543 274.400,68.776 274.400 C 69.009 274.400,69.200 274.596,69.200 274.836 C 69.200 275.076,69.605 275.629,70.100 276.066 C 70.595 276.503,70.775 276.747,70.500 276.607 C 70.225 276.467,70.000 276.560,70.000 276.814 C 70.000 277.067,70.360 277.369,70.800 277.484 C 71.298 277.614,71.600 278.030,71.600 278.585 C 71.600 279.559,72.890 280.977,73.354 280.513 C 73.512 280.354,73.512 280.563,73.353 280.978 C 73.152 281.502,73.206 281.643,73.532 281.442 C 73.814 281.268,74.000 281.403,74.000 281.782 C 74.000 282.463,74.795 284.050,75.334 284.445 C 75.518 284.579,75.628 284.849,75.580 285.045 C 75.531 285.240,75.875 285.578,76.345 285.795 C 76.815 286.012,77.200 286.428,77.200 286.718 C 77.200 287.009,76.975 287.134,76.700 286.995 C 76.425 286.856,76.695 287.167,77.300 287.686 C 77.905 288.205,78.400 288.938,78.400 289.315 C 78.400 289.692,78.535 289.955,78.700 289.900 C 78.865 289.845,79.030 289.960,79.066 290.155 C 79.102 290.351,79.372 290.659,79.666 290.841 C 79.960 291.022,80.216 291.312,80.235 291.485 C 80.336 292.409,80.970 293.220,81.448 293.037 C 81.788 292.906,82.087 293.206,82.245 293.838 C 82.398 294.445,82.707 294.768,83.020 294.648 C 83.307 294.538,83.757 294.707,84.020 295.024 C 84.403 295.485,84.369 295.600,83.849 295.600 C 83.492 295.600,83.200 295.714,83.200 295.853 C 83.200 296.172,84.829 297.600,85.194 297.600 C 85.343 297.600,85.702 298.044,85.993 298.586 C 86.283 299.129,86.673 299.478,86.860 299.363 C 87.047 299.247,87.200 299.433,87.200 299.776 C 87.200 300.119,87.380 300.400,87.600 300.400 C 87.820 300.400,88.000 300.670,88.000 301.000 C 88.000 301.330,88.225 301.555,88.500 301.500 C 88.775 301.445,88.973 301.727,88.940 302.127 C 88.902 302.582,89.079 302.778,89.411 302.651 C 89.703 302.539,90.180 302.741,90.471 303.101 C 90.920 303.655,90.910 303.705,90.400 303.430 C 90.070 303.253,90.657 303.906,91.705 304.882 C 92.752 305.859,93.472 306.795,93.305 306.962 C 93.137 307.130,93.180 307.230,93.400 307.186 C 94.161 307.032,94.847 307.201,94.675 307.500 C 94.580 307.665,94.954 308.250,95.505 308.800 C 96.311 309.604,96.455 309.652,96.244 309.043 C 96.022 308.404,96.076 308.365,96.586 308.789 C 96.919 309.065,97.103 309.434,96.994 309.609 C 96.528 310.364,97.273 311.236,97.947 310.723 C 98.306 310.450,98.484 310.366,98.342 310.537 C 98.115 310.813,99.759 312.800,100.215 312.800 C 100.456 312.800,102.459 314.934,103.193 315.974 C 103.520 316.436,104.010 316.728,104.283 316.624 C 104.556 316.519,104.958 316.741,105.177 317.117 C 105.396 317.492,105.581 317.659,105.588 317.486 C 105.595 317.313,105.974 317.372,106.431 317.617 C 106.929 317.883,107.170 318.300,107.034 318.657 C 106.862 319.103,107.004 319.189,107.599 319.000 C 108.195 318.811,108.509 319.002,108.855 319.762 C 109.109 320.319,109.472 320.679,109.661 320.562 C 109.851 320.445,110.118 320.641,110.254 320.998 C 110.394 321.360,110.759 321.548,111.085 321.423 C 111.434 321.289,111.601 321.396,111.503 321.691 C 111.203 322.592,112.130 323.165,112.725 322.447 C 113.019 322.091,113.145 322.025,113.006 322.300 C 112.863 322.582,112.996 322.800,113.312 322.800 C 113.620 322.800,114.081 323.260,114.337 323.823 C 114.594 324.385,114.983 324.734,115.202 324.599 C 115.421 324.464,115.600 324.524,115.600 324.733 C 115.600 324.942,116.050 325.226,116.600 325.364 C 117.150 325.502,117.600 325.802,117.600 326.031 C 117.600 326.260,117.780 326.336,118.000 326.200 C 118.220 326.064,118.400 326.154,118.400 326.400 C 118.400 326.646,118.553 326.753,118.740 326.637 C 118.927 326.522,119.324 326.885,119.624 327.444 C 120.029 328.202,120.407 328.415,121.107 328.282 C 121.784 328.152,121.988 328.255,121.836 328.651 C 121.701 329.002,121.909 329.200,122.413 329.200 C 122.846 329.200,123.200 329.380,123.200 329.600 C 123.200 329.820,123.573 330.000,124.029 330.000 C 124.983 330.000,126.097 330.955,125.681 331.416 C 125.526 331.587,125.715 331.614,126.100 331.476 C 126.568 331.308,126.800 331.425,126.800 331.827 C 126.800 332.306,126.964 332.340,127.606 331.997 C 128.049 331.760,128.364 331.708,128.306 331.883 C 128.248 332.057,128.364 332.229,128.564 332.264 C 128.764 332.299,129.088 332.614,129.284 332.964 C 129.480 333.314,129.991 333.600,130.420 333.600 C 130.849 333.600,131.200 333.826,131.200 334.102 C 131.200 334.624,131.728 334.889,135.870 336.445 C 137.229 336.955,138.253 337.514,138.147 337.686 C 138.040 337.859,138.143 338.000,138.376 338.000 C 138.609 338.000,138.800 337.780,138.800 337.511 C 138.800 337.242,139.090 337.436,139.445 337.943 C 139.914 338.612,140.340 338.801,141.003 338.635 C 141.617 338.481,141.995 338.610,142.155 339.028 C 142.287 339.371,142.561 339.548,142.765 339.422 C 142.969 339.296,143.420 339.477,143.768 339.825 C 144.115 340.173,144.400 340.332,144.400 340.180 C 144.400 340.027,144.670 340.126,145.000 340.400 C 145.330 340.674,145.600 340.764,145.600 340.600 C 145.600 340.436,145.905 340.549,146.277 340.851 C 146.725 341.215,146.853 341.233,146.656 340.905 C 146.454 340.568,146.557 340.485,146.977 340.646 C 147.317 340.777,147.519 341.007,147.427 341.157 C 147.334 341.307,147.740 341.470,148.329 341.519 C 148.918 341.567,149.460 341.785,149.533 342.003 C 149.723 342.567,150.695 342.495,150.935 341.900 C 151.096 341.500,151.143 341.500,151.168 341.900 C 151.186 342.175,151.560 342.400,152.000 342.400 C 152.440 342.400,152.800 342.580,152.800 342.800 C 152.800 343.020,153.160 343.200,153.600 343.200 C 154.040 343.200,154.400 343.335,154.400 343.500 C 154.400 343.665,155.057 343.836,155.860 343.880 C 156.663 343.924,157.509 344.149,157.740 344.380 C 157.971 344.611,158.495 344.800,158.904 344.800 C 159.313 344.800,159.552 344.954,159.436 345.142 C 159.319 345.330,159.675 345.398,160.226 345.293 C 160.824 345.179,161.518 345.363,161.946 345.751 C 162.390 346.153,163.146 346.344,163.932 346.253 C 164.686 346.165,165.202 346.286,165.206 346.552 C 165.209 346.799,165.387 346.730,165.600 346.400 C 165.931 345.888,166.131 346.054,166.081 346.800 C 166.074 346.910,166.728 347.048,167.534 347.107 C 168.340 347.166,169.060 347.391,169.133 347.607 C 169.207 347.823,169.442 348.000,169.657 348.000 C 169.872 348.000,169.925 347.802,169.775 347.560 C 169.578 347.240,169.728 347.240,170.325 347.560 C 170.778 347.802,171.959 348.000,172.950 348.000 C 173.942 348.000,174.847 348.152,174.962 348.339 C 175.077 348.525,175.763 348.715,176.486 348.760 C 178.693 348.899,178.800 348.922,178.800 349.268 C 178.800 349.452,180.166 349.582,181.836 349.557 C 183.590 349.531,185.059 349.699,185.316 349.956 C 185.869 350.509,186.535 350.542,186.200 350.000 C 186.064 349.780,186.244 349.600,186.600 349.600 C 186.956 349.600,187.151 349.755,187.034 349.945 C 186.743 350.416,212.076 350.406,212.664 349.934 C 212.958 349.698,213.229 349.723,213.400 350.000 C 213.592 350.310,213.860 350.286,214.312 349.919 C 214.793 349.530,214.878 349.525,214.653 349.900 C 214.488 350.175,214.528 350.400,214.743 350.400 C 214.958 350.400,215.201 350.198,215.283 349.951 C 215.377 349.669,216.617 349.502,218.616 349.503 C 220.367 349.503,221.912 349.326,222.049 349.110 C 222.187 348.894,223.132 348.704,224.149 348.687 C 225.292 348.669,226.000 348.477,226.000 348.185 C 226.000 347.890,226.394 347.786,227.043 347.910 C 227.683 348.033,228.221 347.895,228.436 347.555 C 228.664 347.195,228.790 347.167,228.794 347.475 C 228.801 348.034,230.479 348.015,230.866 347.451 C 231.012 347.238,231.552 347.032,232.066 346.993 C 232.580 346.954,233.360 346.787,233.800 346.623 C 234.439 346.385,234.479 346.411,234.000 346.756 C 233.670 346.994,233.580 347.185,233.800 347.181 C 234.020 347.178,234.530 346.925,234.932 346.620 C 235.335 346.314,236.081 346.140,236.589 346.232 C 237.185 346.340,237.603 346.170,237.762 345.754 C 237.936 345.302,238.330 345.170,239.081 345.313 C 239.693 345.430,240.549 345.258,241.076 344.913 C 241.584 344.580,242.000 344.441,242.000 344.603 C 242.000 344.765,242.258 344.684,242.572 344.423 C 242.887 344.162,243.691 343.933,244.358 343.914 C 245.026 343.895,245.478 343.726,245.363 343.540 C 245.147 343.191,245.692 343.058,246.865 343.173 C 247.230 343.209,247.646 343.050,247.788 342.819 C 247.931 342.589,248.577 342.400,249.224 342.400 C 249.871 342.400,250.400 342.220,250.400 342.000 C 250.400 341.780,250.655 341.600,250.967 341.600 C 251.278 341.600,251.624 341.375,251.735 341.100 C 251.896 340.700,251.943 340.700,251.968 341.100 C 251.986 341.375,252.191 341.600,252.424 341.600 C 252.657 341.600,252.717 341.389,252.558 341.132 C 252.365 340.819,252.485 340.747,252.923 340.915 C 253.285 341.054,253.855 340.888,254.199 340.544 C 254.541 340.202,255.106 340.032,255.455 340.166 C 255.889 340.332,256.021 340.233,255.874 339.850 C 255.720 339.448,255.890 339.351,256.481 339.505 C 257.009 339.643,257.440 339.473,257.689 339.026 C 257.955 338.552,258.368 338.406,258.997 338.564 C 259.591 338.712,259.994 338.594,260.134 338.228 C 260.266 337.883,260.672 337.746,261.176 337.878 C 261.629 337.996,262.000 337.931,262.000 337.733 C 262.000 337.217,264.331 335.910,264.769 336.181 C 264.970 336.305,265.414 336.129,265.753 335.789 C 266.093 335.450,266.423 335.211,266.486 335.260 C 266.872 335.558,269.214 334.321,269.589 333.620 C 269.837 333.157,270.211 332.883,270.420 333.012 C 270.629 333.142,270.803 333.012,270.806 332.724 C 270.811 332.343,270.918 332.364,271.200 332.800 C 271.527 333.306,271.589 333.283,271.594 332.657 C 271.598 332.182,271.804 331.993,272.167 332.132 C 272.479 332.252,272.837 332.079,272.964 331.749 C 273.091 331.419,273.377 331.262,273.600 331.400 C 273.823 331.538,274.289 331.368,274.635 331.022 C 274.981 330.676,275.430 330.495,275.632 330.620 C 275.835 330.745,276.000 330.577,276.000 330.247 C 276.000 329.917,276.208 329.519,276.462 329.362 C 276.748 329.185,276.815 329.252,276.638 329.538 C 276.481 329.792,276.521 330.000,276.727 330.000 C 277.187 330.000,278.061 328.995,277.816 328.749 C 277.718 328.651,278.103 328.533,278.672 328.486 C 279.241 328.439,280.018 328.040,280.400 327.600 C 280.782 327.160,281.308 326.800,281.571 326.800 C 281.833 326.800,281.955 326.650,281.842 326.468 C 281.729 326.285,282.250 325.894,283.000 325.600 C 283.750 325.306,284.252 324.885,284.116 324.664 C 283.971 324.430,284.133 324.366,284.509 324.510 C 284.860 324.645,285.208 324.575,285.281 324.356 C 285.355 324.136,285.721 323.911,286.096 323.856 C 286.470 323.801,286.917 323.602,287.088 323.414 C 287.260 323.226,287.187 323.194,286.928 323.342 C 286.668 323.491,286.352 323.446,286.226 323.242 C 286.099 323.037,286.457 322.921,287.021 322.982 C 287.786 323.067,287.988 322.945,287.818 322.503 C 287.673 322.125,287.780 321.983,288.112 322.111 C 288.399 322.221,288.986 322.037,289.417 321.702 C 290.156 321.127,290.157 321.107,289.443 321.355 C 288.793 321.581,288.760 321.530,289.208 320.991 C 289.494 320.646,289.969 320.456,290.264 320.569 C 290.573 320.688,290.800 320.506,290.800 320.141 C 290.800 319.698,291.048 319.572,291.623 319.722 C 292.304 319.900,292.363 319.837,291.966 319.359 C 291.579 318.893,291.605 318.827,292.103 319.018 C 292.442 319.148,292.855 319.034,293.021 318.765 C 293.227 318.432,293.157 318.379,292.800 318.600 C 292.443 318.821,292.373 318.768,292.579 318.435 C 292.745 318.166,293.089 318.025,293.343 318.123 C 293.876 318.327,294.872 317.405,294.509 317.043 C 294.376 316.909,294.477 316.778,294.733 316.750 C 294.990 316.723,295.425 316.678,295.700 316.650 C 295.975 316.623,296.379 316.193,296.597 315.695 C 296.816 315.196,297.230 314.879,297.518 314.990 C 297.806 315.100,297.932 315.013,297.797 314.795 C 297.663 314.578,297.878 314.397,298.276 314.394 C 298.890 314.389,298.909 314.329,298.400 314.000 C 297.884 313.666,297.895 313.611,298.482 313.606 C 299.295 313.599,301.226 311.773,300.858 311.361 C 300.716 311.202,300.906 311.182,301.280 311.316 C 301.795 311.501,301.898 311.395,301.705 310.880 C 301.480 310.279,301.531 310.266,302.148 310.768 C 302.531 311.080,302.814 311.170,302.775 310.968 C 302.641 310.260,302.803 309.600,303.100 309.647 C 303.890 309.772,304.140 309.549,303.600 309.200 C 303.122 308.891,303.113 308.811,303.554 308.806 C 303.859 308.803,304.495 308.382,304.969 307.872 C 305.442 307.361,306.031 307.010,306.278 307.093 C 306.525 307.175,306.861 307.025,307.025 306.759 C 307.215 306.453,307.155 306.381,306.862 306.562 C 306.224 306.956,306.282 306.461,306.952 305.790 C 307.256 305.487,307.643 305.365,307.811 305.519 C 307.980 305.674,308.018 305.395,307.896 304.899 C 307.774 304.404,307.827 304.093,308.013 304.208 C 308.199 304.323,308.536 304.098,308.763 303.708 C 309.087 303.153,309.181 303.129,309.201 303.600 C 309.220 304.040,309.423 303.965,309.964 303.317 C 310.369 302.831,310.852 302.561,311.037 302.717 C 311.222 302.873,311.110 302.650,310.787 302.223 C 310.300 301.578,310.296 301.505,310.768 301.789 C 311.203 302.051,311.271 301.962,311.059 301.409 C 310.814 300.770,310.861 300.751,311.468 301.243 C 311.845 301.550,312.032 301.598,311.884 301.350 C 311.736 301.103,312.062 300.565,312.608 300.155 C 313.153 299.746,313.600 299.172,313.600 298.881 C 313.600 298.591,313.778 298.463,313.995 298.597 C 314.222 298.737,314.289 298.577,314.153 298.221 C 313.994 297.809,314.145 297.600,314.600 297.600 C 315.053 297.600,315.205 297.391,315.049 296.984 C 314.911 296.623,315.017 296.394,315.306 296.431 C 316.448 296.578,316.875 296.373,316.650 295.785 C 316.515 295.435,316.669 295.072,317.004 294.943 C 317.329 294.818,317.496 294.555,317.374 294.358 C 317.252 294.161,317.463 294.000,317.843 294.000 C 318.223 294.000,318.416 293.883,318.273 293.740 C 318.130 293.596,318.325 293.223,318.706 292.910 C 319.088 292.597,319.177 292.453,318.905 292.591 C 318.579 292.756,318.491 292.630,318.646 292.223 C 318.777 291.883,319.000 291.665,319.142 291.739 C 319.284 291.813,319.704 291.553,320.075 291.162 C 320.551 290.660,320.610 290.393,320.275 290.257 C 320.014 290.150,320.217 290.049,320.727 290.032 C 321.489 290.006,321.605 289.847,321.381 289.139 C 321.166 288.464,321.242 288.331,321.733 288.519 C 322.169 288.686,322.291 288.581,322.135 288.175 C 321.970 287.746,322.108 287.659,322.655 287.849 C 323.332 288.084,323.327 288.046,322.600 287.424 C 322.160 287.048,322.025 286.855,322.300 286.994 C 322.575 287.133,322.800 287.046,322.800 286.800 C 322.800 286.554,322.980 286.464,323.200 286.600 C 323.420 286.736,323.600 286.477,323.600 286.024 C 323.600 285.544,323.861 285.200,324.224 285.200 C 324.567 285.200,324.736 285.020,324.600 284.800 C 324.464 284.580,324.507 284.400,324.696 284.400 C 324.885 284.400,325.268 283.767,325.548 282.994 C 325.849 282.162,326.234 281.697,326.491 281.856 C 326.775 282.032,326.848 281.825,326.700 281.262 C 326.576 280.787,326.639 280.501,326.840 280.625 C 327.490 281.026,328.366 279.758,328.112 278.785 C 327.913 278.025,327.995 277.912,328.582 278.138 C 329.185 278.369,329.266 278.229,329.115 277.205 C 328.961 276.152,329.059 276.000,329.893 276.000 C 330.418 276.000,330.745 275.835,330.620 275.632 C 330.495 275.430,330.632 275.025,330.925 274.732 C 331.476 274.181,331.600 273.896,331.600 273.176 C 331.600 272.943,331.825 272.888,332.100 273.053 C 332.391 273.228,332.350 273.039,332.000 272.600 C 331.670 272.186,331.580 271.952,331.800 272.081 C 332.020 272.210,332.432 272.065,332.716 271.758 C 333.137 271.303,333.137 271.199,332.716 271.194 C 332.351 271.190,332.376 271.074,332.800 270.800 C 333.130 270.587,333.220 270.404,333.000 270.393 C 332.780 270.383,332.933 270.122,333.340 269.814 C 333.747 269.506,333.963 269.063,333.819 268.831 C 333.661 268.575,333.802 268.503,334.179 268.647 C 334.587 268.804,334.800 268.657,334.800 268.219 C 334.800 267.817,334.617 267.666,334.338 267.838 C 334.050 268.016,333.985 267.948,334.166 267.655 C 334.325 267.398,334.623 267.291,334.828 267.417 C 335.153 267.618,335.241 267.414,335.186 266.586 C 335.178 266.468,335.450 266.093,335.789 265.753 C 336.129 265.414,336.308 264.975,336.187 264.779 C 335.965 264.421,337.064 262.424,337.749 261.940 C 337.951 261.798,338.003 261.386,337.865 261.025 C 337.715 260.633,337.849 260.279,338.198 260.145 C 338.527 260.019,338.726 259.545,338.652 259.061 C 338.579 258.587,338.808 257.962,339.160 257.670 C 339.645 257.269,339.654 257.215,339.200 257.447 C 338.689 257.708,338.679 257.656,339.134 257.094 C 339.428 256.732,339.554 256.249,339.414 256.022 C 339.261 255.775,339.410 255.706,339.784 255.849 C 340.249 256.028,340.342 255.914,340.146 255.404 C 339.993 255.004,340.115 254.573,340.442 254.366 C 340.875 254.092,340.882 254.011,340.476 254.006 C 340.188 254.003,340.066 253.817,340.204 253.593 C 340.342 253.370,340.621 253.289,340.823 253.414 C 341.026 253.540,341.073 253.335,340.927 252.955 C 340.776 252.559,340.826 252.369,341.047 252.506 C 341.258 252.636,341.469 252.270,341.517 251.694 C 341.565 251.117,341.803 250.522,342.047 250.371 C 342.353 250.182,342.321 250.030,341.945 249.880 C 341.558 249.726,341.545 249.654,341.900 249.632 C 342.175 249.614,342.400 249.240,342.400 248.800 C 342.400 248.360,342.541 248.000,342.713 248.000 C 342.885 248.000,343.066 247.515,343.115 246.922 C 343.164 246.330,343.356 245.745,343.543 245.622 C 343.729 245.500,343.851 244.860,343.814 244.200 C 343.776 243.540,343.905 242.892,344.099 242.760 C 344.408 242.551,344.669 241.740,344.769 240.676 C 344.786 240.498,344.935 240.436,345.100 240.537 C 345.265 240.639,345.439 240.180,345.487 239.517 C 345.535 238.855,345.794 238.048,346.062 237.726 C 346.449 237.259,346.431 237.065,345.974 236.776 C 345.549 236.507,345.535 236.411,345.918 236.406 C 346.202 236.403,346.406 236.175,346.370 235.900 C 346.238 234.883,346.411 234.360,346.800 234.600 C 347.047 234.752,347.200 234.071,347.200 232.824 C 347.200 231.711,347.380 230.800,347.600 230.800 C 347.828 230.800,348.000 229.608,348.000 228.024 C 348.000 226.497,348.181 225.135,348.403 224.998 C 348.625 224.861,348.727 224.311,348.630 223.776 C 348.533 223.241,348.712 222.546,349.027 222.230 C 349.435 221.823,349.600 220.675,349.600 218.252 C 349.600 216.379,349.750 214.754,349.934 214.641 C 350.491 214.296,350.429 188.801,349.871 188.794 C 349.558 188.790,349.579 188.674,349.934 188.449 C 350.613 188.019,350.613 187.581,349.934 187.151 C 349.500 186.875,349.508 186.811,349.976 186.806 C 350.396 186.802,350.342 186.628,349.776 186.167 C 349.034 185.562,349.033 185.545,349.757 185.777 C 350.375 185.974,350.427 185.914,350.041 185.450 C 349.782 185.137,349.524 184.006,349.468 182.937 C 349.412 181.867,349.269 180.814,349.152 180.596 C 348.968 180.255,348.844 178.779,348.678 174.926 C 348.657 174.445,348.496 174.141,348.320 174.249 C 348.144 174.358,348.000 173.526,348.000 172.400 C 348.000 171.137,347.847 170.447,347.600 170.600 C 347.380 170.736,347.200 170.672,347.200 170.457 C 347.200 170.242,347.423 169.992,347.696 169.901 C 348.053 169.782,347.997 169.540,347.496 169.039 C 347.033 168.575,346.881 168.017,347.043 167.371 C 347.191 166.780,347.113 166.400,346.843 166.400 C 346.600 166.400,346.400 165.965,346.400 165.433 C 346.400 164.902,346.175 164.376,345.900 164.265 C 345.500 164.104,345.500 164.057,345.900 164.032 C 346.492 163.994,346.574 162.555,346.005 162.203 C 345.769 162.057,345.714 162.249,345.868 162.679 C 346.011 163.076,345.972 163.259,345.783 163.086 C 345.593 162.913,345.479 162.162,345.530 161.416 C 345.580 160.670,345.436 159.946,345.211 159.806 C 344.985 159.667,344.800 159.107,344.800 158.562 C 344.800 158.018,344.509 157.128,344.154 156.586 C 343.799 156.044,343.664 155.597,343.854 155.594 C 344.044 155.591,343.930 155.413,343.600 155.200 C 343.157 154.914,343.138 154.811,343.529 154.806 C 343.934 154.801,343.916 154.659,343.452 154.195 C 343.120 153.863,342.917 153.233,343.001 152.795 C 343.085 152.358,342.984 152.000,342.777 152.000 C 342.570 152.000,342.400 151.676,342.400 151.280 C 342.400 150.884,342.226 150.386,342.013 150.173 C 341.801 149.961,341.584 149.217,341.531 148.521 C 341.477 147.825,341.272 147.355,341.074 147.478 C 340.876 147.600,340.831 147.333,340.973 146.884 C 341.122 146.416,341.028 145.941,340.754 145.772 C 340.463 145.592,340.381 145.646,340.545 145.911 C 340.692 146.149,340.656 146.442,340.464 146.560 C 340.273 146.679,340.169 146.066,340.235 145.198 C 340.301 144.330,340.157 143.497,339.916 143.348 C 339.633 143.173,339.592 143.263,339.800 143.600 C 340.021 143.957,339.968 144.027,339.635 143.821 C 339.366 143.655,339.245 143.260,339.366 142.944 C 339.487 142.628,339.314 142.265,338.981 142.137 C 338.585 141.985,338.464 141.629,338.631 141.103 C 338.822 140.501,338.750 140.377,338.343 140.609 C 337.918 140.850,337.903 140.806,338.274 140.404 C 338.792 139.845,338.092 138.800,337.200 138.800 C 336.938 138.800,336.796 138.331,336.867 137.700 C 336.942 137.039,336.810 136.634,336.537 136.686 C 336.280 136.735,336.165 136.456,336.272 136.046 C 336.377 135.646,336.165 135.022,335.802 134.660 C 335.440 134.297,335.274 134.000,335.433 134.000 C 335.593 134.000,335.426 133.670,335.061 133.268 C 334.697 132.865,334.493 132.440,334.609 132.325 C 334.725 132.209,334.556 131.895,334.233 131.628 C 333.911 131.360,333.756 130.840,333.888 130.471 C 334.019 130.102,333.987 129.926,333.816 130.081 C 333.645 130.235,333.256 130.113,332.952 129.810 C 332.313 129.170,332.212 128.637,332.800 129.000 C 333.020 129.136,333.200 129.057,333.200 128.824 C 333.200 128.591,332.936 128.400,332.613 128.400 C 332.272 128.400,332.116 128.164,332.241 127.837 C 332.363 127.520,331.831 126.629,331.027 125.801 C 330.241 124.991,329.699 124.163,329.824 123.961 C 330.125 123.474,328.990 122.359,328.561 122.719 C 328.377 122.874,328.490 122.650,328.813 122.223 C 329.180 121.737,329.213 121.559,328.900 121.747 C 328.566 121.947,328.400 121.780,328.400 121.242 C 328.400 120.400,326.613 118.320,326.224 118.709 C 326.101 118.832,326.000 118.620,326.000 118.238 C 326.000 117.856,325.738 117.281,325.417 116.960 C 325.096 116.639,324.930 116.126,325.048 115.819 C 325.168 115.505,324.894 115.064,324.420 114.811 C 323.957 114.563,323.682 114.191,323.810 113.985 C 323.937 113.778,323.762 113.716,323.421 113.847 C 323.079 113.978,322.800 113.886,322.800 113.643 C 322.800 113.399,323.025 113.197,323.300 113.194 C 323.643 113.190,323.618 113.072,323.219 112.820 C 322.900 112.618,322.497 112.540,322.324 112.647 C 322.151 112.754,322.111 112.576,322.236 112.251 C 322.371 111.898,322.117 111.477,321.600 111.200 C 321.111 110.938,320.831 110.497,320.952 110.180 C 321.199 109.537,319.666 108.312,319.073 108.678 C 318.855 108.813,318.780 108.757,318.906 108.553 C 319.032 108.349,318.517 107.376,317.763 106.391 C 317.008 105.406,316.095 104.001,315.735 103.269 C 315.271 102.326,314.871 101.993,314.366 102.125 C 313.634 102.316,313.015 101.423,313.422 100.764 C 313.546 100.564,313.444 100.400,313.195 100.400 C 312.676 100.400,311.373 99.206,311.871 99.188 C 312.052 99.181,311.881 98.990,311.492 98.763 C 311.102 98.536,310.890 98.177,311.021 97.966 C 311.152 97.754,311.111 97.606,310.930 97.637 C 310.030 97.794,309.536 97.543,309.733 97.029 C 309.994 96.351,309.013 95.421,308.422 95.786 C 308.175 95.939,308.106 95.790,308.249 95.416 C 308.424 94.961,308.313 94.859,307.840 95.040 C 307.389 95.213,307.257 95.117,307.407 94.725 C 307.694 93.979,305.815 92.220,305.162 92.624 C 304.807 92.843,304.742 92.727,304.937 92.221 C 305.136 91.701,305.053 91.571,304.625 91.735 C 304.231 91.886,304.114 91.769,304.265 91.375 C 304.429 90.947,304.299 90.864,303.775 91.065 C 303.236 91.272,303.120 91.186,303.301 90.715 C 303.483 90.239,303.334 90.136,302.670 90.280 C 301.966 90.433,301.914 90.388,302.400 90.041 C 302.841 89.725,302.862 89.611,302.476 89.606 C 302.183 89.603,302.078 89.397,302.238 89.138 C 302.416 88.851,302.348 88.785,302.059 88.964 C 301.799 89.124,301.489 88.975,301.354 88.625 C 301.222 88.281,300.864 88.000,300.557 88.000 C 300.251 88.000,300.000 87.820,300.000 87.600 C 300.000 87.380,299.685 87.197,299.300 87.194 C 298.745 87.189,298.714 87.115,299.153 86.838 C 299.587 86.563,299.523 86.429,298.853 86.217 C 298.384 86.068,298.000 85.768,298.000 85.549 C 298.000 85.331,297.792 85.281,297.538 85.438 C 297.276 85.600,297.184 85.549,297.326 85.320 C 297.463 85.098,297.102 84.485,296.523 83.958 C 295.944 83.431,295.601 83.225,295.759 83.500 C 296.276 84.397,295.426 84.004,294.244 82.800 C 293.609 82.152,292.903 81.736,292.676 81.876 C 292.425 82.032,292.364 81.872,292.519 81.466 C 292.704 80.984,292.558 80.800,291.987 80.800 C 291.554 80.800,291.200 80.558,291.200 80.262 C 291.200 79.966,290.809 79.381,290.331 78.962 C 289.853 78.543,289.586 78.413,289.738 78.672 C 289.889 78.932,289.856 79.242,289.665 79.360 C 289.474 79.478,289.115 79.131,288.867 78.587 C 288.590 77.980,288.068 77.588,287.509 77.568 C 287.009 77.551,286.826 77.446,287.102 77.334 C 287.379 77.223,287.508 76.975,287.390 76.783 C 287.271 76.592,286.924 76.531,286.617 76.649 C 286.297 76.771,285.771 76.423,285.384 75.831 C 285.012 75.264,284.369 74.800,283.954 74.800 C 283.539 74.800,283.200 74.620,283.200 74.400 C 283.200 74.180,282.919 74.000,282.576 74.000 C 282.233 74.000,282.071 73.808,282.217 73.573 C 282.362 73.339,282.237 73.180,281.940 73.221 C 280.848 73.371,280.448 73.182,280.200 72.400 C 280.036 71.882,279.595 71.600,278.949 71.600 C 278.265 71.600,278.043 71.443,278.241 71.100 C 278.399 70.825,278.384 70.730,278.208 70.889 C 277.849 71.214,275.600 70.012,275.600 69.496 C 275.600 69.314,275.375 69.208,275.100 69.261 C 274.117 69.449,272.837 68.770,273.063 68.180 C 273.214 67.786,273.014 67.600,272.443 67.600 C 271.979 67.600,271.600 67.422,271.600 67.205 C 271.600 66.987,271.195 66.852,270.700 66.905 C 270.115 66.967,269.841 66.808,269.916 66.451 C 269.990 66.105,269.809 65.988,269.427 66.134 C 269.088 66.264,268.290 65.919,267.611 65.348 C 266.945 64.787,266.400 64.439,266.400 64.574 C 266.400 64.708,265.983 64.545,265.473 64.211 C 264.962 63.877,264.035 63.561,263.411 63.509 C 262.694 63.450,262.205 63.143,262.083 62.674 C 261.932 62.098,261.813 62.052,261.551 62.466 C 261.309 62.847,261.210 62.860,261.206 62.513 C 261.203 62.243,260.930 62.129,260.595 62.257 C 260.149 62.429,260.061 62.307,260.259 61.790 C 260.487 61.196,260.339 61.118,259.279 61.274 C 258.479 61.391,257.959 61.269,257.830 60.935 C 257.720 60.648,257.346 60.523,256.999 60.656 C 256.610 60.805,256.412 60.707,256.484 60.399 C 256.548 60.125,256.350 59.809,256.044 59.698 C 255.698 59.572,255.596 59.670,255.774 59.958 C 255.931 60.212,255.461 60.084,254.730 59.675 C 253.998 59.265,253.191 59.000,252.937 59.086 C 252.682 59.172,252.356 59.053,252.213 58.821 C 252.070 58.590,251.543 58.400,251.043 58.400 C 250.543 58.400,249.998 58.265,249.833 58.100 C 249.532 57.798,249.324 57.742,248.176 57.650 C 247.812 57.621,247.672 57.408,247.839 57.137 C 248.035 56.819,247.852 56.745,247.256 56.901 C 246.748 57.034,246.139 56.882,245.793 56.536 C 245.333 56.076,245.199 56.062,245.194 56.471 C 245.190 56.795,245.074 56.844,244.894 56.599 C 244.732 56.378,244.060 56.136,243.400 56.061 C 242.740 55.986,242.140 55.761,242.067 55.562 C 241.993 55.363,241.599 55.200,241.190 55.200 C 240.782 55.200,240.327 55.005,240.180 54.768 C 240.033 54.530,239.511 54.436,239.021 54.559 C 238.531 54.682,237.793 54.537,237.381 54.236 C 236.970 53.935,236.414 53.773,236.145 53.877 C 235.876 53.980,235.058 53.803,234.328 53.484 C 233.598 53.165,232.566 52.889,232.036 52.872 C 231.506 52.854,230.966 52.675,230.836 52.473 C 230.706 52.270,229.970 52.105,229.200 52.105 C 226.412 52.104,225.557 51.994,225.761 51.663 C 225.876 51.477,225.482 51.356,224.885 51.394 C 224.288 51.432,223.260 51.306,222.600 51.114 C 221.940 50.922,220.075 50.706,218.455 50.634 C 216.508 50.547,215.393 50.316,215.162 49.951 C 214.909 49.552,214.811 49.538,214.806 49.900 C 214.803 50.175,214.609 50.400,214.376 50.400 C 214.143 50.400,214.042 50.256,214.151 50.080 C 214.259 49.904,213.922 49.760,213.400 49.760 C 212.878 49.760,212.541 49.904,212.649 50.080 C 212.758 50.256,212.657 50.400,212.424 50.400 C 212.191 50.400,212.000 50.259,212.000 50.087 C 212.000 49.914,206.330 49.752,199.401 49.726 C 189.996 49.690,186.867 49.795,187.059 50.139 C 187.219 50.424,187.112 50.409,186.779 50.100 C 186.136 49.503,185.450 49.433,185.800 50.000 C 185.936 50.220,185.872 50.400,185.657 50.400 C 185.442 50.400,185.192 50.175,185.100 49.900 C 184.977 49.531,184.884 49.549,184.744 49.967 M173.400 118.800 C 173.536 119.020,173.997 119.200,174.424 119.200 C 174.851 119.200,175.200 119.350,175.200 119.532 C 175.200 119.715,175.695 120.120,176.300 120.432 C 177.854 121.235,248.800 192.227,248.800 192.980 C 248.800 193.321,248.980 193.600,249.200 193.600 C 249.420 193.600,249.600 193.949,249.600 194.376 C 249.600 194.803,249.780 195.264,250.000 195.400 C 250.227 195.540,250.400 197.530,250.400 200.000 C 250.400 202.470,250.227 204.460,250.000 204.600 C 249.780 204.736,249.600 205.197,249.600 205.624 C 249.600 206.051,249.420 206.400,249.200 206.400 C 248.980 206.400,248.800 206.680,248.800 207.023 C 248.800 207.778,177.859 278.763,176.300 279.568 C 175.695 279.880,175.200 280.285,175.200 280.468 C 175.200 280.650,174.851 280.800,174.424 280.800 C 173.997 280.800,173.536 280.980,173.400 281.200 C 173.074 281.727,164.526 281.727,164.200 281.200 C 164.064 280.980,163.637 280.800,163.252 280.800 C 162.866 280.800,162.164 280.440,161.692 280.000 C 161.220 279.560,160.728 279.200,160.599 279.200 C 160.181 279.200,158.616 277.431,158.032 276.300 C 157.720 275.695,157.315 275.200,157.132 275.200 C 156.950 275.200,156.800 274.851,156.800 274.424 C 156.800 273.997,156.620 273.536,156.400 273.400 C 156.173 273.260,156.000 271.270,156.000 268.800 C 156.000 266.330,156.173 264.340,156.400 264.200 C 156.620 264.064,156.800 263.637,156.800 263.252 C 156.800 262.866,157.160 262.164,157.600 261.692 C 158.040 261.220,158.400 260.729,158.400 260.602 C 158.400 260.234,163.740 254.687,169.551 249.019 C 172.494 246.149,176.184 242.471,177.751 240.847 C 179.318 239.223,189.122 229.369,199.537 218.949 L 218.474 200.003 199.537 181.048 C 189.122 170.624,179.318 160.768,177.751 159.147 C 176.184 157.526,172.494 153.851,169.551 150.979 C 163.992 145.556,158.400 139.736,158.400 139.375 C 158.400 139.260,158.040 138.780,157.600 138.308 C 157.160 137.836,156.800 137.134,156.800 136.748 C 156.800 136.363,156.620 135.936,156.400 135.800 C 156.173 135.660,156.000 133.670,156.000 131.200 C 156.000 128.730,156.173 126.740,156.400 126.600 C 156.620 126.464,156.800 126.003,156.800 125.576 C 156.800 125.149,156.950 124.800,157.132 124.800 C 157.315 124.800,157.719 124.305,158.031 123.700 C 158.738 122.325,160.874 120.286,162.311 119.616 C 162.910 119.336,163.670 118.959,164.000 118.777 C 164.868 118.300,173.103 118.320,173.400 118.800 " stroke="none" fill="#349cec" fill-rule="evenodd"></path><path id="path2" d="M189.999 170.900 L 218.998 200.000 198.199 220.900 L 177.401 241.800 198.400 220.900 L 219.399 200.000 190.200 170.900 L 161.001 141.800 189.999 170.900 M249.952 197.287 C 250.137 198.398,250.193 198.455,250.319 197.654 C 250.401 197.133,250.303 196.543,250.101 196.341 C 249.879 196.119,249.821 196.493,249.952 197.287 M249.952 202.713 C 249.821 203.507,249.879 203.881,250.101 203.659 C 250.303 203.457,250.401 202.867,250.319 202.346 C 250.193 201.545,250.137 201.602,249.952 202.713 M169.396 249.700 L 161.800 257.400 169.500 249.804 C 173.735 245.626,177.200 242.161,177.200 242.104 C 177.200 241.819,176.454 242.546,169.396 249.700 " stroke="none" fill="#5cacf4" fill-rule="evenodd"></path><path id="path3" d="M165.800 118.689 C 158.794 120.407,153.995 129.103,156.605 135.351 C 157.459 137.395,157.672 137.154,156.932 134.981 C 153.286 124.281,166.096 114.475,175.400 120.845 C 177.112 122.017,247.401 192.321,248.540 194.000 C 249.187 194.954,249.188 194.938,248.570 193.644 C 247.786 192.004,177.599 121.706,175.366 120.325 C 172.650 118.644,168.721 117.973,165.800 118.689 M157.600 137.653 C 157.600 137.936,171.415 151.994,188.300 168.892 C 205.185 185.791,219.000 199.789,219.000 200.000 C 219.000 200.211,205.185 214.209,188.300 231.108 C 171.415 248.006,157.600 262.064,157.600 262.347 C 157.600 262.630,158.079 262.263,158.665 261.531 C 159.251 260.799,173.245 246.655,189.764 230.100 L 219.798 200.000 189.764 169.900 C 173.245 153.345,159.251 139.201,158.665 138.469 C 158.079 137.737,157.600 137.370,157.600 137.653 M249.256 195.600 C 249.256 195.930,249.411 196.560,249.600 197.000 C 249.817 197.504,249.944 197.578,249.944 197.200 C 249.944 196.870,249.789 196.240,249.600 195.800 C 249.383 195.296,249.256 195.222,249.256 195.600 M250.109 200.000 C 250.109 200.990,250.187 201.395,250.282 200.900 C 250.378 200.405,250.378 199.595,250.282 199.100 C 250.187 198.605,250.109 199.010,250.109 200.000 M249.429 203.429 C 249.281 204.015,249.238 204.572,249.332 204.666 C 249.427 204.760,249.624 204.358,249.771 203.771 C 249.919 203.185,249.962 202.628,249.868 202.534 C 249.773 202.440,249.576 202.842,249.429 203.429 M248.052 206.500 C 245.689 210.277,175.423 279.500,173.085 280.354 C 167.084 282.547,160.232 279.794,157.542 274.110 C 157.149 273.279,156.821 272.820,156.814 273.088 C 156.788 274.014,158.483 276.569,160.139 278.099 C 164.073 281.736,169.211 282.547,174.096 280.303 C 177.719 278.638,251.005 205.200,249.043 205.200 C 248.945 205.200,248.499 205.785,248.052 206.500 M156.605 264.649 C 155.977 266.153,155.751 271.799,156.306 272.142 C 156.474 272.246,156.545 270.997,156.462 269.366 C 156.357 267.282,156.503 265.926,156.953 264.801 C 157.305 263.920,157.507 263.200,157.402 263.200 C 157.297 263.200,156.938 263.852,156.605 264.649 " stroke="none" fill="#64b4f4" fill-rule="evenodd"></path><path id="path4" d="M212.000 49.982 C 212.000 50.139,212.630 50.267,213.400 50.267 C 214.170 50.267,214.719 50.185,214.619 50.086 C 214.308 49.775,212.000 49.683,212.000 49.982 M235.216 53.750 C 235.327 53.861,235.931 54.044,236.558 54.158 C 237.185 54.272,237.579 54.246,237.434 54.101 C 237.289 53.955,236.685 53.771,236.092 53.692 C 235.499 53.613,235.105 53.639,235.216 53.750 M140.500 61.396 C 138.955 62.068,138.849 62.336,140.162 62.258 C 140.691 62.226,141.040 62.065,140.938 61.900 C 140.836 61.735,141.033 61.600,141.376 61.600 C 141.719 61.600,142.000 61.420,142.000 61.200 C 142.000 60.716,142.092 60.704,140.500 61.396 M137.796 62.807 C 137.658 63.030,137.407 63.128,137.239 63.024 C 137.071 62.920,136.933 63.080,136.933 63.379 C 136.933 64.054,137.859 63.744,138.157 62.969 C 138.408 62.313,138.168 62.205,137.796 62.807 M292.400 81.624 C 292.400 81.857,292.560 81.949,292.755 81.828 C 292.950 81.707,293.332 81.877,293.604 82.204 C 293.876 82.532,294.283 82.800,294.510 82.800 C 294.737 82.800,294.507 82.440,294.000 82.000 C 292.979 81.115,292.400 80.978,292.400 81.624 M93.704 93.021 C 93.431 93.316,93.341 93.638,93.504 93.737 C 93.667 93.835,94.023 93.674,94.296 93.379 C 94.569 93.084,94.659 92.762,94.496 92.663 C 94.333 92.565,93.977 92.726,93.704 93.021 M313.466 101.533 C 313.540 101.826,313.600 102.151,313.600 102.256 C 313.600 102.361,313.780 102.336,314.000 102.200 C 314.220 102.064,314.400 101.773,314.400 101.553 C 314.400 101.333,314.235 101.255,314.034 101.379 C 313.833 101.503,313.592 101.469,313.500 101.302 C 313.407 101.136,313.392 101.240,313.466 101.533 M84.880 102.480 C 84.316 103.044,84.253 103.600,84.753 103.600 C 84.948 103.600,85.201 103.240,85.316 102.800 C 85.560 101.866,85.522 101.838,84.880 102.480 M81.600 106.800 C 81.310 107.342,81.305 107.600,81.586 107.600 C 81.814 107.600,82.000 107.345,82.000 107.033 C 82.000 106.722,82.225 106.376,82.500 106.265 C 82.877 106.113,82.880 106.055,82.514 106.032 C 82.247 106.014,81.835 106.360,81.600 106.800 M159.813 121.413 C 158.971 122.185,158.354 122.888,158.443 122.976 C 158.531 123.064,159.291 122.505,160.133 121.733 C 160.975 120.962,161.592 120.259,161.504 120.171 C 161.416 120.083,160.655 120.642,159.813 121.413 M176.800 120.900 C 176.800 120.956,193.000 137.204,212.800 157.007 C 232.600 176.811,248.800 192.867,248.800 192.687 C 248.800 192.323,177.394 120.800,177.030 120.800 C 176.904 120.800,176.800 120.845,176.800 120.900 M336.800 137.933 C 336.800 138.466,337.050 138.800,337.449 138.800 C 338.004 138.800,338.021 138.699,337.562 138.100 C 337.267 137.715,336.975 137.325,336.913 137.233 C 336.851 137.142,336.800 137.457,336.800 137.933 M160.800 141.834 C 160.800 142.229,169.650 151.319,173.224 154.595 C 174.421 155.692,172.160 153.268,168.200 149.209 C 164.240 145.150,160.955 141.748,160.900 141.648 C 160.845 141.548,160.800 141.632,160.800 141.834 M56.111 156.500 C 55.394 157.428,55.151 158.000,55.476 157.997 C 55.654 157.995,56.008 157.545,56.262 156.997 C 56.768 155.906,56.712 155.723,56.111 156.500 M179.007 160.340 C 180.103 161.517,189.430 170.920,199.733 181.236 L 218.465 199.992 197.833 220.643 C 186.485 232.001,177.200 241.412,177.200 241.556 C 177.200 241.700,186.604 232.408,198.097 220.907 L 218.994 199.995 198.005 179.098 C 186.460 167.604,177.911 159.163,179.007 160.340 M52.267 169.467 C 51.836 169.898,51.961 171.271,52.407 170.996 C 52.630 170.858,52.697 170.557,52.555 170.328 C 52.414 170.098,52.546 169.753,52.849 169.561 C 53.152 169.369,53.205 169.209,52.967 169.206 C 52.728 169.203,52.413 169.320,52.267 169.467 M348.800 179.776 C 348.800 180.093,348.980 180.464,349.200 180.600 C 349.420 180.736,349.600 180.477,349.600 180.024 C 349.600 179.571,349.420 179.200,349.200 179.200 C 348.980 179.200,348.800 179.459,348.800 179.776 M212.716 242.948 C 192.980 262.758,176.907 279.040,176.998 279.131 C 177.244 279.377,248.800 207.715,248.800 207.223 C 248.800 206.990,248.755 206.829,248.700 206.865 C 248.645 206.900,232.452 223.138,212.716 242.948 M50.412 218.980 C 50.403 219.841,50.520 220.040,50.841 219.719 C 51.158 219.402,51.161 219.068,50.854 218.539 C 50.477 217.891,50.423 217.946,50.412 218.980 M51.357 225.388 C 51.405 225.712,51.598 226.117,51.786 226.288 C 51.974 226.460,51.999 226.375,51.841 226.100 C 51.682 225.825,51.754 225.600,52.000 225.600 C 52.246 225.600,52.336 225.420,52.200 225.200 C 51.826 224.595,51.259 224.721,51.357 225.388 M348.292 225.042 C 348.131 225.202,348.000 225.609,348.000 225.947 C 348.000 226.397,348.118 226.442,348.445 226.115 C 348.690 225.870,348.821 225.463,348.737 225.210 C 348.652 224.957,348.452 224.881,348.292 225.042 M344.060 242.666 C 343.419 243.361,343.599 243.695,344.360 243.225 C 344.656 243.042,344.831 242.709,344.749 242.486 C 344.663 242.250,344.372 242.326,344.060 242.666 M169.800 248.725 C 163.347 255.085,159.754 258.800,160.055 258.800 C 160.219 258.800,171.318 247.763,175.167 243.773 C 175.258 243.678,175.258 243.600,175.166 243.600 C 175.074 243.600,172.659 245.906,169.800 248.725 M62.800 263.029 C 62.800 263.333,63.878 264.400,64.186 264.400 C 64.319 264.400,64.235 264.040,64.000 263.600 C 63.609 262.869,62.800 262.484,62.800 263.029 M158.400 276.943 C 158.400 277.356,160.412 279.322,160.620 279.113 C 160.714 279.019,160.254 278.426,159.596 277.796 C 158.938 277.166,158.400 276.782,158.400 276.943 M322.832 286.724 C 322.814 287.014,322.595 287.120,322.338 286.962 C 322.064 286.793,321.985 286.851,322.142 287.106 C 322.288 287.342,322.136 287.807,321.804 288.139 C 321.472 288.471,321.200 288.889,321.200 289.067 C 321.200 289.246,321.663 288.893,322.229 288.282 C 322.795 287.672,323.169 286.954,323.060 286.686 C 322.915 286.329,322.855 286.339,322.832 286.724 M83.200 295.000 C 83.200 295.330,83.492 295.600,83.849 295.600 C 84.380 295.600,84.408 295.491,84.000 295.000 C 83.726 294.670,83.434 294.400,83.351 294.400 C 83.268 294.400,83.200 294.670,83.200 295.000 M308.676 303.746 C 308.515 304.165,308.202 304.336,307.903 304.167 C 307.500 303.939,307.500 303.990,307.900 304.421 C 308.487 305.054,309.401 304.404,309.118 303.555 C 309.001 303.202,308.862 303.262,308.676 303.746 M112.612 322.380 C 112.483 322.589,112.743 322.955,113.189 323.194 C 113.735 323.486,114.000 323.493,114.000 323.214 C 114.000 322.986,113.719 322.800,113.376 322.800 C 113.033 322.800,112.864 322.620,113.000 322.400 C 113.136 322.180,113.157 322.000,113.047 322.000 C 112.937 322.000,112.742 322.171,112.612 322.380 M257.784 338.827 C 257.360 339.513,257.739 339.580,258.577 338.967 C 259.226 338.493,259.246 338.400,258.700 338.400 C 258.341 338.400,257.929 338.592,257.784 338.827 " stroke="none" fill="#3c9cec" fill-rule="evenodd"></path></g></svg>