<svg id="svg" version="1.1" xmlns="http://www.w3.org/2000/svg" xmlns:xlink="http://www.w3.org/1999/xlink" width="400" height="400" viewBox="0, 0, 400,400"><g id="svgg"><path id="path0" d="M215.282 101.023 C 209.622 102.546,211.835 100.512,166.162 146.173 C 117.236 195.087,120.650 191.049,120.650 200.000 C 120.650 208.930,117.337 204.998,165.471 253.211 C 207.483 295.291,209.023 296.743,213.400 298.380 C 227.736 303.741,242.862 290.162,239.013 275.387 C 237.541 269.733,238.849 271.188,202.334 234.590 C 183.670 215.885,168.400 200.319,168.400 200.000 C 168.400 199.681,183.670 184.115,202.334 165.410 C 238.849 128.812,237.541 130.267,239.013 124.613 C 242.636 110.706,229.142 97.292,215.282 101.023 " stroke="none" fill="#e3e3e4" fill-rule="evenodd"></path><path id="path1" d="M178.300 0.275 C 176.375 0.361,174.800 0.604,174.800 0.816 C 174.800 1.027,173.540 1.200,172.000 1.200 C 170.400 1.200,169.200 1.371,169.200 1.600 C 169.200 1.820,168.221 2.000,167.024 2.000 C 165.827 2.000,164.736 2.180,164.600 2.400 C 164.464 2.620,163.373 2.800,162.176 2.800 C 160.979 2.800,160.000 2.980,160.000 3.200 C 160.000 3.420,159.280 3.600,158.400 3.600 C 157.520 3.600,156.800 3.780,156.800 4.000 C 156.800 4.220,156.001 4.400,155.024 4.400 C 154.047 4.400,153.136 4.580,153.000 4.800 C 152.864 5.020,152.144 5.200,151.400 5.200 C 150.656 5.200,149.936 5.380,149.800 5.600 C 149.664 5.820,149.023 6.000,148.376 6.000 C 147.729 6.000,147.200 6.142,147.200 6.315 C 147.200 6.488,146.627 6.673,145.927 6.727 C 145.226 6.780,144.449 6.993,144.200 7.200 C 143.951 7.407,143.186 7.619,142.501 7.671 C 141.816 7.723,141.332 7.890,141.425 8.041 C 141.519 8.193,140.922 8.407,140.098 8.519 C 139.274 8.630,138.330 8.793,138.000 8.882 C 136.774 9.210,132.986 10.515,132.600 10.742 C 132.380 10.871,131.844 11.032,131.409 11.100 C 130.973 11.168,130.442 11.398,130.229 11.611 C 130.015 11.825,129.426 12.000,128.920 12.000 C 128.414 12.000,128.000 12.147,128.000 12.328 C 128.000 12.508,127.100 12.900,126.000 13.200 C 124.900 13.500,124.000 13.892,124.000 14.072 C 124.000 14.253,123.640 14.400,123.200 14.400 C 122.760 14.400,122.400 14.591,122.400 14.824 C 122.400 15.057,122.252 15.156,122.071 15.044 C 121.891 14.932,121.240 15.102,120.626 15.420 C 120.011 15.739,119.259 16.000,118.954 16.000 C 118.649 16.000,118.400 16.180,118.400 16.400 C 118.400 16.620,118.040 16.800,117.600 16.800 C 117.160 16.800,116.800 16.936,116.800 17.102 C 116.800 17.269,116.215 17.637,115.500 17.920 C 113.164 18.847,107.600 21.790,107.600 22.099 C 107.600 22.264,107.240 22.400,106.800 22.400 C 106.360 22.400,106.000 22.580,106.000 22.800 C 106.000 23.020,105.640 23.200,105.200 23.200 C 104.760 23.200,104.400 23.380,104.400 23.600 C 104.400 23.820,104.040 24.000,103.600 24.000 C 103.160 24.000,102.800 24.180,102.800 24.400 C 102.800 24.620,102.440 24.800,102.000 24.800 C 101.560 24.800,101.200 24.991,101.200 25.224 C 101.200 25.457,101.020 25.536,100.800 25.400 C 100.580 25.264,100.400 25.343,100.400 25.576 C 100.400 25.809,100.040 26.000,99.600 26.000 C 99.160 26.000,98.800 26.136,98.800 26.302 C 98.800 26.469,98.215 26.864,97.500 27.180 C 96.785 27.497,95.851 28.080,95.425 28.478 C 94.998 28.875,94.413 29.200,94.125 29.200 C 93.836 29.200,93.600 29.358,93.600 29.551 C 93.600 29.745,93.060 30.127,92.400 30.400 C 91.740 30.673,91.200 31.055,91.200 31.249 C 91.200 31.442,90.880 31.600,90.488 31.600 C 90.097 31.600,89.517 31.960,89.200 32.400 C 88.883 32.840,88.420 33.200,88.171 33.200 C 87.922 33.200,87.154 33.740,86.463 34.400 C 85.772 35.060,85.002 35.600,84.751 35.600 C 84.499 35.600,84.003 35.916,83.647 36.303 C 83.291 36.689,82.505 37.260,81.900 37.570 C 81.295 37.881,80.800 38.285,80.800 38.468 C 80.800 38.650,80.607 38.800,80.371 38.800 C 80.136 38.800,79.714 39.025,79.435 39.300 C 79.155 39.575,78.323 40.250,77.585 40.800 C 76.238 41.804,73.836 43.789,72.898 44.674 C 72.621 44.934,72.036 45.262,71.598 45.401 C 71.159 45.540,70.800 45.942,70.800 46.294 C 70.800 46.645,70.688 46.821,70.551 46.685 C 70.415 46.548,69.619 47.148,68.783 48.018 C 67.947 48.888,67.078 49.600,66.851 49.600 C 66.625 49.600,66.256 49.915,66.032 50.300 C 65.808 50.685,65.619 50.858,65.612 50.684 C 65.605 50.511,65.349 50.601,65.042 50.884 C 64.735 51.168,64.566 51.535,64.666 51.700 C 64.765 51.865,64.651 52.000,64.410 52.000 C 63.815 52.000,61.193 54.660,61.493 54.960 C 61.625 55.092,61.532 55.200,61.285 55.200 C 61.038 55.200,60.386 55.650,59.836 56.200 C 59.286 56.750,58.946 57.200,59.079 57.200 C 59.213 57.200,58.890 57.561,58.361 58.003 C 56.128 59.869,55.200 60.813,55.200 61.217 C 55.200 61.454,55.020 61.536,54.800 61.400 C 54.580 61.264,54.400 61.444,54.400 61.800 C 54.400 62.156,54.220 62.336,54.000 62.200 C 53.780 62.064,53.600 62.244,53.600 62.600 C 53.600 62.956,53.420 63.136,53.200 63.000 C 52.980 62.864,52.800 63.044,52.800 63.400 C 52.800 63.756,52.620 63.936,52.400 63.800 C 52.180 63.664,52.000 63.863,52.000 64.243 C 52.000 64.623,51.883 64.817,51.740 64.674 C 51.479 64.412,49.601 66.354,49.600 66.887 C 49.600 67.045,48.520 68.295,47.200 69.665 C 45.880 71.035,44.800 72.309,44.800 72.495 C 44.800 72.681,44.422 73.231,43.959 73.717 C 43.497 74.203,42.644 75.230,42.064 76.000 C 41.484 76.770,40.692 77.691,40.304 78.047 C 39.917 78.403,39.600 78.898,39.600 79.147 C 39.600 79.396,39.420 79.600,39.200 79.600 C 38.980 79.600,38.800 79.830,38.800 80.112 C 38.800 80.393,38.440 80.883,38.000 81.200 C 37.560 81.517,37.200 82.057,37.200 82.400 C 37.200 82.743,36.840 83.283,36.400 83.600 C 35.960 83.917,35.600 84.409,35.600 84.692 C 35.600 84.975,35.060 85.772,34.400 86.463 C 33.740 87.154,33.200 87.922,33.200 88.171 C 33.200 88.420,32.840 88.883,32.400 89.200 C 31.960 89.517,31.600 90.057,31.600 90.400 C 31.600 90.743,31.240 91.283,30.800 91.600 C 30.360 91.917,30.000 92.497,30.000 92.888 C 30.000 93.280,29.820 93.600,29.600 93.600 C 29.380 93.600,29.200 93.836,29.200 94.125 C 29.200 94.413,28.876 94.998,28.480 95.425 C 27.704 96.260,27.032 97.608,27.140 98.111 C 27.177 98.282,26.936 98.527,26.604 98.654 C 26.272 98.781,26.000 99.226,26.000 99.643 C 26.000 100.059,25.809 100.400,25.576 100.400 C 25.343 100.400,25.264 100.580,25.400 100.800 C 25.536 101.020,25.457 101.200,25.224 101.200 C 24.991 101.200,24.800 101.560,24.800 102.000 C 24.800 102.440,24.620 102.800,24.400 102.800 C 24.180 102.800,24.000 103.160,24.000 103.600 C 24.000 104.040,23.820 104.400,23.600 104.400 C 23.380 104.400,23.200 104.760,23.200 105.200 C 23.200 105.640,23.020 106.000,22.800 106.000 C 22.580 106.000,22.400 106.360,22.400 106.800 C 22.400 107.240,22.220 107.600,22.000 107.600 C 21.780 107.600,21.600 107.881,21.600 108.224 C 21.600 108.567,21.420 108.736,21.200 108.600 C 20.972 108.459,20.800 108.804,20.800 109.400 C 20.800 109.996,20.628 110.341,20.400 110.200 C 20.180 110.064,20.000 110.229,20.000 110.567 C 20.000 110.904,19.641 111.770,19.201 112.490 C 18.762 113.211,18.402 114.115,18.401 114.500 C 18.401 114.885,18.220 115.200,18.000 115.200 C 17.780 115.200,17.600 115.560,17.600 116.000 C 17.600 116.440,17.420 116.800,17.200 116.800 C 16.980 116.800,16.800 117.160,16.800 117.600 C 16.800 118.040,16.620 118.400,16.400 118.400 C 16.180 118.400,16.000 118.649,16.000 118.954 C 16.000 119.259,15.739 120.011,15.420 120.626 C 15.102 121.240,14.932 121.891,15.044 122.071 C 15.156 122.252,15.057 122.400,14.824 122.400 C 14.591 122.400,14.400 122.760,14.400 123.200 C 14.400 123.640,14.253 124.000,14.072 124.000 C 13.892 124.000,13.500 124.900,13.200 126.000 C 12.900 127.100,12.508 128.000,12.328 128.000 C 12.147 128.000,12.000 128.435,12.000 128.967 C 12.000 129.498,11.831 129.993,11.625 130.067 C 11.418 130.140,11.189 130.650,11.114 131.200 C 11.040 131.750,10.873 132.380,10.743 132.600 C 10.515 132.985,9.212 136.765,8.882 138.000 C 8.793 138.330,8.630 139.274,8.519 140.098 C 8.407 140.922,8.193 141.519,8.041 141.425 C 7.890 141.332,7.723 141.816,7.671 142.501 C 7.619 143.186,7.407 143.951,7.200 144.200 C 6.993 144.449,6.780 145.226,6.727 145.927 C 6.673 146.627,6.488 147.200,6.315 147.200 C 6.142 147.200,6.000 147.729,6.000 148.376 C 6.000 149.023,5.820 149.664,5.600 149.800 C 5.380 149.936,5.200 150.656,5.200 151.400 C 5.200 152.144,5.020 152.864,4.800 153.000 C 4.580 153.136,4.400 154.047,4.400 155.024 C 4.400 156.001,4.220 156.800,4.000 156.800 C 3.780 156.800,3.600 157.509,3.600 158.376 C 3.600 159.243,3.420 160.064,3.200 160.200 C 2.980 160.336,2.800 161.337,2.800 162.424 C 2.800 163.511,2.620 164.400,2.400 164.400 C 2.178 164.400,2.000 165.467,2.000 166.800 C 2.000 168.133,1.822 169.200,1.600 169.200 C 1.372 169.200,1.200 170.389,1.200 171.967 C 1.200 173.824,1.036 174.788,0.700 174.900 C -0.032 175.144,-0.032 224.856,0.700 225.100 C 1.036 225.212,1.200 226.176,1.200 228.033 C 1.200 229.611,1.372 230.800,1.600 230.800 C 1.823 230.800,2.000 231.875,2.000 233.224 C 2.000 234.737,2.150 235.554,2.400 235.400 C 2.650 235.246,2.800 236.063,2.800 237.576 C 2.800 238.925,2.977 240.000,3.200 240.000 C 3.420 240.000,3.600 240.720,3.600 241.600 C 3.600 242.480,3.780 243.200,4.000 243.200 C 4.220 243.200,4.400 243.999,4.400 244.976 C 4.400 245.953,4.580 246.864,4.800 247.000 C 5.020 247.136,5.200 247.856,5.200 248.600 C 5.200 249.344,5.380 250.064,5.600 250.200 C 5.820 250.336,6.000 250.977,6.000 251.624 C 6.000 252.271,6.142 252.800,6.315 252.800 C 6.488 252.800,6.673 253.373,6.727 254.073 C 6.780 254.774,6.993 255.551,7.200 255.800 C 7.407 256.049,7.619 256.814,7.671 257.499 C 7.723 258.184,7.890 258.668,8.041 258.575 C 8.193 258.481,8.422 259.168,8.552 260.102 C 8.681 261.036,8.820 262.025,8.860 262.300 C 8.901 262.575,9.083 262.800,9.267 262.800 C 9.450 262.800,9.555 262.936,9.500 263.103 C 9.347 263.566,11.341 269.782,11.692 269.933 C 11.861 270.007,12.000 270.502,12.000 271.033 C 12.000 271.565,12.180 272.000,12.400 272.000 C 12.620 272.000,12.800 272.450,12.800 273.000 C 12.800 273.550,12.980 274.000,13.200 274.000 C 13.420 274.000,13.600 274.450,13.600 275.000 C 13.600 275.550,13.780 276.000,14.000 276.000 C 14.220 276.000,14.400 276.360,14.400 276.800 C 14.400 277.240,14.541 277.600,14.713 277.600 C 14.885 277.600,15.066 278.095,15.116 278.700 C 15.166 279.305,15.385 279.860,15.603 279.933 C 15.822 280.007,16.000 280.412,16.000 280.833 C 16.000 281.255,16.180 281.600,16.400 281.600 C 16.620 281.600,16.800 281.960,16.800 282.400 C 16.800 282.840,16.980 283.200,17.200 283.200 C 17.420 283.200,17.600 283.560,17.600 284.000 C 17.600 284.440,17.780 284.800,18.000 284.800 C 18.220 284.800,18.400 285.250,18.400 285.800 C 18.400 286.350,18.535 286.801,18.700 286.803 C 19.065 286.807,20.000 288.749,20.000 289.503 C 20.000 289.802,20.147 289.956,20.327 289.845 C 20.507 289.734,20.879 290.263,21.153 291.021 C 21.427 291.780,21.820 292.400,22.026 292.400 C 22.232 292.400,22.400 292.760,22.400 293.200 C 22.400 293.640,22.580 294.000,22.800 294.000 C 23.020 294.000,23.200 294.360,23.200 294.800 C 23.200 295.240,23.380 295.600,23.600 295.600 C 23.820 295.600,24.000 295.960,24.000 296.400 C 24.000 296.840,24.180 297.200,24.400 297.200 C 24.620 297.200,24.800 297.549,24.800 297.976 C 24.800 298.403,24.968 298.857,25.173 298.983 C 25.378 299.110,26.053 300.246,26.673 301.507 C 27.293 302.768,28.021 304.033,28.290 304.319 C 28.560 304.604,29.064 305.435,29.410 306.165 C 29.756 306.895,30.391 307.869,30.820 308.329 C 31.249 308.790,31.600 309.354,31.600 309.583 C 31.600 309.812,31.780 310.000,32.000 310.000 C 32.220 310.000,32.400 310.270,32.400 310.600 C 32.400 310.930,32.580 311.200,32.800 311.200 C 33.020 311.200,33.200 311.443,33.200 311.741 C 33.200 312.038,33.740 312.846,34.400 313.537 C 35.060 314.228,35.600 315.025,35.600 315.308 C 35.600 315.591,35.960 316.083,36.400 316.400 C 36.840 316.717,37.200 317.257,37.200 317.600 C 37.200 317.943,37.560 318.483,38.000 318.800 C 38.440 319.117,38.800 319.607,38.800 319.888 C 38.800 320.170,38.980 320.400,39.200 320.400 C 39.420 320.400,39.600 320.604,39.600 320.853 C 39.600 321.102,39.916 321.597,40.302 321.953 C 40.688 322.309,41.719 323.500,42.595 324.600 C 43.470 325.700,44.324 326.660,44.493 326.733 C 44.662 326.807,44.800 327.109,44.800 327.404 C 44.800 327.700,45.274 328.315,45.854 328.771 C 46.434 329.227,46.779 329.600,46.621 329.600 C 46.464 329.600,47.069 330.306,47.967 331.169 C 48.865 332.031,49.600 332.922,49.600 333.149 C 49.600 333.375,49.915 333.744,50.300 333.968 C 50.685 334.192,50.880 334.381,50.734 334.388 C 50.588 334.395,51.038 334.992,51.734 335.715 C 52.430 336.439,53.135 336.968,53.300 336.892 C 53.465 336.815,53.600 337.044,53.600 337.400 C 53.600 337.756,53.780 337.936,54.000 337.800 C 54.220 337.664,54.400 337.844,54.400 338.200 C 54.400 338.556,54.580 338.736,54.800 338.600 C 55.020 338.464,55.200 338.546,55.200 338.783 C 55.200 339.187,56.128 340.131,58.361 341.997 C 58.890 342.439,59.213 342.800,59.079 342.800 C 58.946 342.800,59.286 343.250,59.836 343.800 C 60.386 344.350,61.038 344.800,61.285 344.800 C 61.532 344.800,61.622 344.911,61.486 345.048 C 61.164 345.369,62.195 346.400,62.838 346.400 C 63.110 346.400,63.224 346.509,63.091 346.642 C 62.821 346.912,66.371 350.400,66.917 350.400 C 67.107 350.400,67.947 351.112,68.783 351.982 C 69.619 352.852,70.415 353.452,70.551 353.315 C 70.688 353.179,70.800 353.336,70.800 353.666 C 70.800 353.995,71.295 354.520,71.900 354.832 C 72.505 355.145,73.603 355.940,74.339 356.600 C 75.076 357.260,75.817 357.800,75.985 357.800 C 76.154 357.800,76.839 358.385,77.507 359.100 C 78.174 359.815,78.919 360.400,79.160 360.400 C 79.402 360.400,79.600 360.580,79.600 360.800 C 79.600 361.020,79.830 361.200,80.112 361.200 C 80.393 361.200,80.883 361.560,81.200 362.000 C 81.517 362.440,82.057 362.800,82.400 362.800 C 82.743 362.800,83.283 363.160,83.600 363.600 C 83.917 364.040,84.415 364.400,84.706 364.400 C 84.998 364.400,85.678 364.841,86.217 365.381 C 86.756 365.920,87.828 366.661,88.599 367.026 C 89.369 367.392,90.000 367.851,90.000 368.046 C 90.000 368.241,90.270 368.400,90.600 368.400 C 90.930 368.400,91.200 368.580,91.200 368.800 C 91.200 369.020,91.517 369.200,91.904 369.200 C 92.291 369.200,92.832 369.560,93.107 370.000 C 93.382 370.440,93.853 370.800,94.154 370.800 C 94.456 370.800,94.939 371.085,95.228 371.434 C 95.518 371.783,96.440 372.343,97.277 372.678 C 98.115 373.013,98.800 373.433,98.800 373.612 C 98.800 373.790,99.340 374.055,100.000 374.200 C 100.660 374.345,101.200 374.629,101.200 374.832 C 101.200 375.034,101.560 375.200,102.000 375.200 C 102.440 375.200,102.800 375.380,102.800 375.600 C 102.800 375.820,103.160 376.000,103.600 376.000 C 104.040 376.000,104.400 376.180,104.400 376.400 C 104.400 376.620,104.720 376.800,105.112 376.800 C 105.503 376.800,106.083 377.160,106.400 377.600 C 106.717 378.040,107.182 378.400,107.433 378.400 C 107.684 378.400,109.289 379.120,111.000 380.000 C 112.711 380.880,114.356 381.600,114.655 381.600 C 114.955 381.600,115.200 381.780,115.200 382.000 C 115.200 382.220,115.560 382.400,116.000 382.400 C 116.440 382.400,116.800 382.580,116.800 382.800 C 116.800 383.020,117.160 383.200,117.600 383.200 C 118.040 383.200,118.400 383.380,118.400 383.600 C 118.400 383.820,118.749 384.000,119.176 384.000 C 119.603 384.000,120.064 384.180,120.200 384.400 C 120.336 384.620,120.887 384.800,121.424 384.800 C 121.961 384.800,122.400 384.980,122.400 385.200 C 122.400 385.420,122.760 385.600,123.200 385.600 C 123.640 385.600,124.000 385.780,124.000 386.000 C 124.000 386.220,124.450 386.400,125.000 386.400 C 125.550 386.400,126.000 386.580,126.000 386.800 C 126.000 387.020,126.450 387.200,127.000 387.200 C 127.550 387.200,128.000 387.380,128.000 387.600 C 128.000 387.820,128.450 388.000,129.000 388.000 C 129.550 388.000,130.000 388.180,130.000 388.400 C 130.000 388.620,130.504 388.800,131.120 388.800 C 131.736 388.800,132.411 388.958,132.620 389.151 C 133.228 389.713,137.608 391.113,139.904 391.480 C 140.621 391.595,141.306 391.849,141.427 392.044 C 141.548 392.240,142.166 392.400,142.800 392.400 C 143.434 392.400,144.064 392.580,144.200 392.800 C 144.336 393.020,144.966 393.200,145.600 393.200 C 146.234 393.200,146.864 393.380,147.000 393.600 C 147.136 393.820,147.766 394.000,148.400 394.000 C 149.034 394.000,149.664 394.180,149.800 394.400 C 149.936 394.620,150.667 394.800,151.424 394.800 C 152.181 394.800,152.800 394.980,152.800 395.200 C 152.800 395.420,153.700 395.600,154.800 395.600 C 155.900 395.600,156.800 395.780,156.800 396.000 C 156.800 396.220,157.520 396.400,158.400 396.400 C 159.280 396.400,160.000 396.580,160.000 396.800 C 160.000 397.020,160.979 397.200,162.176 397.200 C 163.373 397.200,164.464 397.380,164.600 397.600 C 164.736 397.820,165.827 398.000,167.024 398.000 C 168.221 398.000,169.200 398.180,169.200 398.400 C 169.200 398.628,170.389 398.800,171.967 398.800 C 173.824 398.800,174.788 398.964,174.900 399.300 C 175.144 400.032,224.856 400.032,225.100 399.300 C 225.212 398.964,226.176 398.800,228.033 398.800 C 229.611 398.800,230.800 398.628,230.800 398.400 C 230.800 398.178,231.867 398.000,233.200 398.000 C 234.533 398.000,235.600 397.822,235.600 397.600 C 235.600 397.380,236.489 397.200,237.576 397.200 C 238.663 397.200,239.664 397.020,239.800 396.800 C 239.936 396.580,240.757 396.400,241.624 396.400 C 242.491 396.400,243.200 396.220,243.200 396.000 C 243.200 395.780,244.100 395.600,245.200 395.600 C 246.300 395.600,247.200 395.420,247.200 395.200 C 247.200 394.980,247.819 394.800,248.576 394.800 C 249.333 394.800,250.064 394.620,250.200 394.400 C 250.336 394.180,250.966 394.000,251.600 394.000 C 252.234 394.000,252.864 393.820,253.000 393.600 C 253.136 393.380,253.766 393.200,254.400 393.200 C 255.034 393.200,255.664 393.020,255.800 392.800 C 255.936 392.580,256.667 392.400,257.424 392.400 C 258.181 392.400,258.800 392.240,258.800 392.044 C 258.800 391.848,259.385 391.598,260.100 391.488 C 261.748 391.236,262.343 391.066,265.938 389.819 C 267.554 389.259,269.129 388.800,269.438 388.800 C 269.747 388.800,270.000 388.620,270.000 388.400 C 270.000 388.180,270.450 388.000,271.000 388.000 C 271.550 388.000,272.000 387.820,272.000 387.600 C 272.000 387.380,272.450 387.200,273.000 387.200 C 273.550 387.200,274.000 387.020,274.000 386.800 C 274.000 386.580,274.450 386.400,275.000 386.400 C 275.550 386.400,276.000 386.220,276.000 386.000 C 276.000 385.780,276.349 385.600,276.776 385.600 C 277.203 385.600,277.664 385.420,277.800 385.200 C 277.936 384.980,278.487 384.800,279.024 384.800 C 279.561 384.800,280.000 384.620,280.000 384.400 C 280.000 384.180,280.360 384.000,280.800 384.000 C 281.240 384.000,281.600 383.820,281.600 383.600 C 281.600 383.380,281.960 383.200,282.400 383.200 C 282.840 383.200,283.200 383.020,283.200 382.800 C 283.200 382.580,283.560 382.400,284.000 382.400 C 284.440 382.400,284.800 382.220,284.800 382.000 C 284.800 381.780,285.250 381.600,285.800 381.600 C 286.350 381.600,286.801 381.465,286.803 381.300 C 286.807 380.941,288.744 380.000,289.480 380.000 C 289.766 380.000,290.000 379.841,290.000 379.647 C 290.000 379.452,290.315 379.193,290.700 379.071 C 291.636 378.775,293.766 377.476,293.933 377.100 C 294.007 376.935,294.412 376.800,294.833 376.800 C 295.255 376.800,295.600 376.620,295.600 376.400 C 295.600 376.180,295.960 376.000,296.400 376.000 C 296.840 376.000,297.200 375.820,297.200 375.600 C 297.200 375.380,297.526 375.200,297.925 375.200 C 298.323 375.200,299.002 374.871,299.433 374.470 C 299.864 374.068,300.438 373.813,300.709 373.903 C 300.979 373.993,301.200 373.883,301.200 373.659 C 301.200 373.435,301.830 373.024,302.600 372.746 C 303.370 372.467,304.000 372.124,304.000 371.983 C 304.000 371.841,304.816 371.306,305.814 370.793 C 306.812 370.280,308.129 369.396,308.742 368.830 C 309.354 368.263,310.113 367.741,310.428 367.670 C 310.743 367.598,311.060 367.373,311.133 367.170 C 311.207 366.966,311.495 366.800,311.774 366.800 C 312.053 366.800,312.846 366.260,313.537 365.600 C 314.228 364.940,315.025 364.400,315.308 364.400 C 315.591 364.400,316.083 364.040,316.400 363.600 C 316.717 363.160,317.225 362.800,317.528 362.800 C 317.831 362.800,318.583 362.260,319.200 361.600 C 319.817 360.940,320.532 360.400,320.789 360.400 C 321.047 360.400,321.527 360.130,321.857 359.800 C 322.187 359.470,322.312 359.200,322.135 359.200 C 321.958 359.200,322.385 358.885,323.084 358.500 C 323.783 358.115,324.990 357.215,325.767 356.500 C 326.543 355.785,327.328 355.200,327.511 355.200 C 327.694 355.200,328.965 354.120,330.335 352.800 C 331.705 351.480,332.962 350.400,333.128 350.400 C 333.642 350.400,337.165 346.899,336.909 346.642 C 336.776 346.509,336.977 346.400,337.357 346.400 C 337.737 346.400,337.936 346.220,337.800 346.000 C 337.664 345.780,337.751 345.600,337.992 345.600 C 338.234 345.600,339.139 344.835,340.004 343.900 C 341.867 341.885,341.841 341.910,343.500 340.387 C 344.215 339.730,344.800 338.985,344.800 338.730 C 344.800 338.475,344.911 338.378,345.047 338.514 C 345.310 338.777,350.400 333.666,350.400 333.138 C 350.400 332.966,351.480 331.705,352.800 330.335 C 354.120 328.965,355.200 327.691,355.200 327.505 C 355.200 327.319,355.578 326.769,356.041 326.283 C 356.503 325.797,357.356 324.770,357.936 324.000 C 358.516 323.230,359.308 322.309,359.696 321.953 C 360.083 321.597,360.400 321.084,360.400 320.814 C 360.400 320.543,360.940 319.817,361.600 319.200 C 362.260 318.583,362.800 317.831,362.800 317.528 C 362.800 317.225,363.160 316.717,363.600 316.400 C 364.040 316.083,364.400 315.583,364.400 315.290 C 364.400 314.997,364.939 314.181,365.598 313.478 C 366.257 312.775,366.797 311.990,366.798 311.733 C 366.799 311.477,366.966 311.207,367.170 311.133 C 367.373 311.060,367.598 310.730,367.670 310.400 C 367.741 310.070,368.115 309.509,368.500 309.153 C 368.885 308.797,369.200 308.330,369.200 308.115 C 369.200 307.900,369.560 307.398,370.000 307.000 C 370.440 306.602,370.800 306.068,370.800 305.813 C 370.800 305.559,371.115 305.002,371.500 304.575 C 372.097 303.914,373.404 301.460,373.672 300.497 C 373.718 300.334,374.080 299.851,374.478 299.425 C 374.875 298.998,375.200 298.323,375.200 297.925 C 375.200 297.526,375.380 297.200,375.600 297.200 C 375.820 297.200,376.000 296.840,376.000 296.400 C 376.000 295.960,376.180 295.600,376.400 295.600 C 376.620 295.600,376.800 295.280,376.800 294.888 C 376.800 294.497,377.160 293.917,377.600 293.600 C 378.040 293.283,378.400 292.809,378.400 292.546 C 378.400 291.920,380.881 287.039,381.286 286.867 C 381.459 286.793,381.600 286.298,381.600 285.767 C 381.600 285.235,381.780 284.800,382.000 284.800 C 382.220 284.800,382.400 284.440,382.400 284.000 C 382.400 283.560,382.580 283.200,382.800 283.200 C 383.020 283.200,383.200 282.840,383.200 282.400 C 383.200 281.960,383.391 281.600,383.624 281.600 C 383.857 281.600,383.945 281.435,383.820 281.232 C 383.695 281.030,383.864 280.593,384.196 280.261 C 384.528 279.929,384.800 279.194,384.800 278.629 C 384.800 278.063,384.980 277.600,385.200 277.600 C 385.420 277.600,385.600 277.240,385.600 276.800 C 385.600 276.360,385.747 276.000,385.928 276.000 C 386.108 276.000,386.500 275.100,386.800 274.000 C 387.100 272.900,387.492 272.000,387.672 272.000 C 387.853 272.000,388.000 271.565,388.000 271.033 C 388.000 270.502,388.135 270.007,388.300 269.933 C 388.752 269.732,391.101 262.467,391.480 260.096 C 391.595 259.379,391.849 258.694,392.044 258.573 C 392.240 258.452,392.400 257.834,392.400 257.200 C 392.400 256.566,392.580 255.936,392.800 255.800 C 393.020 255.664,393.200 255.034,393.200 254.400 C 393.200 253.766,393.380 253.136,393.600 253.000 C 393.820 252.864,394.000 252.234,394.000 251.600 C 394.000 250.966,394.180 250.336,394.400 250.200 C 394.620 250.064,394.800 249.333,394.800 248.576 C 394.800 247.819,394.980 247.200,395.200 247.200 C 395.420 247.200,395.600 246.300,395.600 245.200 C 395.600 244.100,395.780 243.200,396.000 243.200 C 396.220 243.200,396.400 242.480,396.400 241.600 C 396.400 240.720,396.580 240.000,396.800 240.000 C 397.020 240.000,397.200 239.010,397.200 237.800 C 397.200 236.590,397.380 235.600,397.600 235.600 C 397.822 235.600,398.000 234.533,398.000 233.200 C 398.000 231.867,398.178 230.800,398.400 230.800 C 398.628 230.800,398.800 229.611,398.800 228.033 C 398.800 226.176,398.964 225.212,399.300 225.100 C 400.032 224.856,400.032 175.144,399.300 174.900 C 398.964 174.788,398.800 173.824,398.800 171.967 C 398.800 170.389,398.628 169.200,398.400 169.200 C 398.178 169.200,398.000 168.133,398.000 166.800 C 398.000 165.467,397.822 164.400,397.600 164.400 C 397.380 164.400,397.200 163.511,397.200 162.424 C 397.200 161.337,397.020 160.336,396.800 160.200 C 396.580 160.064,396.400 159.243,396.400 158.376 C 396.400 157.509,396.220 156.800,396.000 156.800 C 395.780 156.800,395.600 156.001,395.600 155.024 C 395.600 154.047,395.420 153.136,395.200 153.000 C 394.980 152.864,394.800 152.144,394.800 151.400 C 394.800 150.656,394.620 149.936,394.400 149.800 C 394.180 149.664,394.000 149.034,394.000 148.400 C 394.000 147.766,393.820 147.136,393.600 147.000 C 393.380 146.864,393.200 146.259,393.200 145.656 C 393.200 145.053,393.026 144.386,392.813 144.173 C 392.601 143.961,392.384 143.217,392.331 142.521 C 392.277 141.825,392.110 141.332,391.959 141.425 C 391.807 141.519,391.593 140.922,391.481 140.098 C 391.235 138.274,391.233 138.268,389.775 133.800 C 389.129 131.820,388.465 130.140,388.300 130.067 C 388.135 129.993,388.000 129.498,388.000 128.967 C 388.000 128.435,387.864 128.000,387.698 128.000 C 387.400 128.000,386.400 125.475,386.312 124.500 C 386.287 124.225,386.117 124.000,385.933 124.000 C 385.750 124.000,385.600 123.640,385.600 123.200 C 385.600 122.760,385.409 122.400,385.176 122.400 C 384.943 122.400,384.844 122.252,384.956 122.071 C 385.068 121.891,384.898 121.240,384.580 120.626 C 384.261 120.011,384.000 119.259,384.000 118.954 C 384.000 118.649,383.820 118.400,383.600 118.400 C 383.380 118.400,383.200 118.040,383.200 117.600 C 383.200 117.160,383.065 116.799,382.900 116.797 C 382.502 116.793,381.600 114.821,381.600 113.954 C 381.600 113.576,381.465 113.207,381.300 113.133 C 380.910 112.960,378.400 108.026,378.400 107.432 C 378.400 107.182,378.040 106.717,377.600 106.400 C 377.160 106.083,376.800 105.503,376.800 105.112 C 376.800 104.720,376.620 104.400,376.400 104.400 C 376.180 104.400,376.000 104.040,376.000 103.600 C 376.000 103.160,375.820 102.800,375.600 102.800 C 375.380 102.800,375.200 102.440,375.200 102.000 C 375.200 101.560,375.020 101.200,374.800 101.200 C 374.580 101.200,374.419 101.065,374.443 100.900 C 374.521 100.363,373.914 98.800,373.628 98.800 C 373.475 98.800,373.102 98.170,372.800 97.400 C 372.498 96.630,372.133 96.000,371.988 96.000 C 371.844 96.000,371.306 95.184,370.793 94.186 C 370.280 93.188,369.396 91.871,368.830 91.258 C 368.263 90.646,367.741 89.889,367.668 89.576 C 367.595 89.263,367.415 88.916,367.267 88.804 C 367.120 88.692,366.744 88.105,366.432 87.500 C 366.120 86.895,365.715 86.400,365.532 86.400 C 365.350 86.400,365.200 86.157,365.200 85.859 C 365.200 85.562,364.660 84.754,364.000 84.063 C 363.340 83.372,362.800 82.652,362.800 82.463 C 362.800 82.274,362.260 81.554,361.600 80.863 C 360.940 80.172,360.400 79.460,360.400 79.279 C 360.400 79.099,360.085 78.602,359.700 78.175 C 359.315 77.748,358.518 76.769,357.929 76.000 C 357.339 75.230,356.394 74.077,355.829 73.438 C 355.263 72.799,354.800 72.148,354.800 71.993 C 354.800 71.837,353.630 70.511,352.200 69.045 C 350.770 67.579,349.600 66.209,349.600 66.000 C 349.600 65.790,347.935 63.993,345.900 62.006 C 343.865 60.019,342.020 58.211,341.800 57.987 C 335.730 51.809,333.458 49.600,333.174 49.600 C 332.982 49.600,331.705 48.520,330.335 47.200 C 328.965 45.880,327.699 44.800,327.523 44.800 C 327.346 44.800,326.531 44.167,325.711 43.394 C 324.891 42.620,323.733 41.772,323.139 41.509 C 322.544 41.246,322.129 40.916,322.215 40.775 C 322.302 40.635,321.929 40.283,321.386 39.993 C 320.844 39.702,320.400 39.315,320.400 39.132 C 320.400 38.950,320.170 38.800,319.888 38.800 C 319.607 38.800,319.117 38.440,318.800 38.000 C 318.483 37.560,317.991 37.200,317.708 37.200 C 317.425 37.200,316.628 36.660,315.937 36.000 C 315.246 35.340,314.438 34.800,314.141 34.800 C 313.843 34.800,313.600 34.650,313.600 34.468 C 313.600 34.285,313.105 33.880,312.500 33.568 C 311.895 33.256,311.308 32.880,311.196 32.733 C 311.084 32.585,310.737 32.405,310.424 32.332 C 310.111 32.259,309.321 31.705,308.668 31.100 C 308.016 30.495,307.238 30.000,306.941 30.000 C 306.643 30.000,306.400 29.820,306.400 29.600 C 306.400 29.380,306.164 29.200,305.875 29.200 C 305.587 29.200,305.002 28.875,304.575 28.478 C 304.149 28.080,303.215 27.497,302.500 27.180 C 301.785 26.864,301.200 26.454,301.200 26.269 C 301.200 26.084,300.979 26.007,300.709 26.097 C 300.438 26.187,299.864 25.932,299.433 25.530 C 299.002 25.129,298.323 24.800,297.925 24.800 C 297.526 24.800,297.200 24.620,297.200 24.400 C 297.200 24.180,296.840 24.000,296.400 24.000 C 295.960 24.000,295.600 23.820,295.600 23.600 C 295.600 23.380,295.322 23.200,294.983 23.200 C 294.644 23.200,293.980 22.840,293.508 22.400 C 293.036 21.960,292.312 21.600,291.901 21.600 C 291.489 21.600,291.264 21.420,291.400 21.200 C 291.536 20.980,291.277 20.800,290.824 20.800 C 290.371 20.800,290.000 20.620,290.000 20.400 C 290.000 20.180,289.775 20.000,289.500 20.001 C 289.225 20.002,288.280 19.650,287.400 19.219 C 286.520 18.788,285.215 18.204,284.500 17.920 C 283.785 17.637,283.200 17.269,283.200 17.102 C 283.200 16.936,282.840 16.800,282.400 16.800 C 281.960 16.800,281.600 16.620,281.600 16.400 C 281.600 16.180,281.240 16.000,280.800 16.000 C 280.360 16.000,280.000 15.820,280.000 15.600 C 280.000 15.380,279.561 15.200,279.024 15.200 C 278.487 15.200,277.936 15.020,277.800 14.800 C 277.664 14.580,277.203 14.400,276.776 14.400 C 276.349 14.400,276.000 14.220,276.000 14.000 C 276.000 13.780,275.721 13.600,275.381 13.600 C 275.040 13.600,274.016 13.240,273.106 12.800 C 272.195 12.360,271.139 12.000,270.758 12.000 C 270.378 12.000,270.007 11.822,269.933 11.603 C 269.860 11.385,269.305 11.166,268.700 11.116 C 268.095 11.066,267.600 10.885,267.600 10.713 C 267.600 10.541,267.465 10.437,267.300 10.483 C 267.135 10.528,266.010 10.223,264.800 9.804 C 262.179 8.896,261.792 8.791,260.096 8.520 C 259.379 8.405,258.694 8.151,258.573 7.956 C 258.452 7.760,257.859 7.600,257.256 7.600 C 256.653 7.600,255.986 7.426,255.773 7.213 C 255.561 7.001,254.805 6.783,254.093 6.728 C 253.382 6.674,252.800 6.488,252.800 6.315 C 252.800 6.142,252.260 6.000,251.600 6.000 C 250.940 6.000,250.400 5.820,250.400 5.600 C 250.400 5.380,249.691 5.200,248.824 5.200 C 247.957 5.200,247.136 5.020,247.000 4.800 C 246.864 4.580,245.953 4.400,244.976 4.400 C 243.999 4.400,243.200 4.220,243.200 4.000 C 243.200 3.780,242.491 3.600,241.624 3.600 C 240.757 3.600,239.936 3.420,239.800 3.200 C 239.664 2.980,238.663 2.800,237.576 2.800 C 236.489 2.800,235.600 2.620,235.600 2.400 C 235.600 2.178,234.533 2.000,233.200 2.000 C 231.867 2.000,230.800 1.822,230.800 1.600 C 230.800 1.372,229.611 1.200,228.033 1.200 C 226.198 1.200,225.211 1.034,225.103 0.708 C 224.941 0.222,187.291 -0.126,178.300 0.275 M224.919 100.162 C 238.215 103.625,244.360 118.720,237.357 130.716 C 236.673 131.889,223.607 145.254,202.729 166.136 C 184.288 184.581,169.200 199.815,169.200 199.989 C 169.200 200.163,184.289 215.402,202.732 233.853 C 223.701 254.831,236.675 268.106,237.361 269.284 C 242.769 278.577,240.642 289.503,232.062 296.489 C 225.689 301.679,214.300 301.596,207.697 296.311 C 204.525 293.773,123.237 212.035,122.756 210.900 C 122.453 210.185,122.069 209.600,121.902 209.600 C 121.736 209.600,121.600 209.328,121.600 208.995 C 121.600 208.662,121.441 208.077,121.247 207.695 C 119.924 205.094,119.807 204.472,119.807 200.000 C 119.807 195.528,119.924 194.906,121.247 192.305 C 121.441 191.923,121.600 191.338,121.600 191.005 C 121.600 190.672,121.736 190.400,121.902 190.400 C 122.069 190.400,122.453 189.815,122.756 189.100 C 123.237 187.965,204.525 106.227,207.697 103.689 C 212.079 100.181,219.309 98.701,224.919 100.162 " stroke="none" fill="#2494f4" fill-rule="evenodd"></path><path id="path2" d="M165.799 145.700 L 125.400 186.200 165.900 145.801 C 203.551 108.243,206.579 105.200,206.299 105.200 C 206.244 105.200,188.019 123.425,165.799 145.700 M201.399 166.900 L 168.600 199.800 201.500 167.001 C 232.085 136.510,234.579 134.000,234.299 134.000 C 234.244 134.000,219.439 148.805,201.399 166.900 M201.400 233.200 C 219.439 251.240,234.288 266.000,234.398 266.000 C 234.508 266.000,219.839 251.240,201.800 233.200 C 183.761 215.160,168.912 200.400,168.802 200.400 C 168.692 200.400,183.361 215.160,201.400 233.200 M165.800 254.400 C 188.019 276.620,206.289 294.800,206.399 294.800 C 206.509 294.800,188.419 276.620,166.200 254.400 C 143.981 232.180,125.711 214.000,125.601 214.000 C 125.491 214.000,143.581 232.180,165.800 254.400 " stroke="none" fill="#7bbaec" fill-rule="evenodd"></path><path id="path3" d="M218.100 99.894 C 219.145 99.976,220.855 99.976,221.900 99.894 C 222.945 99.812,222.090 99.744,220.000 99.744 C 217.910 99.744,217.055 99.812,218.100 99.894 M210.900 101.692 C 209.525 102.388,208.400 103.105,208.400 103.284 C 208.400 103.463,209.089 103.175,209.932 102.643 C 210.774 102.111,212.259 101.398,213.232 101.057 C 214.204 100.717,214.640 100.435,214.200 100.432 C 213.760 100.429,212.275 100.995,210.900 101.692 M226.600 101.012 C 228.604 101.734,228.878 101.730,227.600 101.000 C 227.050 100.686,226.240 100.430,225.800 100.432 C 225.360 100.434,225.720 100.695,226.600 101.012 M228.800 101.767 C 228.800 101.852,229.430 102.293,230.200 102.747 C 230.970 103.201,231.600 103.432,231.600 103.261 C 231.600 103.089,230.970 102.648,230.200 102.281 C 229.430 101.913,228.800 101.682,228.800 101.767 M166.412 144.694 L 125.400 185.788 166.589 144.794 C 189.244 122.247,207.859 103.755,207.956 103.700 C 208.054 103.645,207.974 103.600,207.778 103.600 C 207.583 103.600,188.968 122.092,166.412 144.694 M237.400 110.000 C 237.741 110.660,238.111 111.200,238.221 111.200 C 238.331 111.200,238.141 110.660,237.800 110.000 C 237.459 109.340,237.089 108.800,236.979 108.800 C 236.869 108.800,237.059 109.340,237.400 110.000 M240.109 120.000 C 240.109 120.990,240.187 121.395,240.282 120.900 C 240.378 120.405,240.378 119.595,240.282 119.100 C 240.187 118.605,240.109 119.010,240.109 120.000 M237.400 130.000 C 237.059 130.660,236.869 131.200,236.979 131.200 C 237.089 131.200,237.459 130.660,237.800 130.000 C 238.141 129.340,238.331 128.800,238.221 128.800 C 238.111 128.800,237.741 129.340,237.400 130.000 M232.815 135.741 L 231.029 137.800 233.115 135.815 C 234.262 134.723,235.200 133.778,235.200 133.715 C 235.200 133.251,234.338 133.983,232.815 135.741 M217.392 151.300 L 213.800 155.000 217.500 151.408 C 220.936 148.072,221.382 147.600,221.092 147.600 C 221.032 147.600,219.367 149.265,217.392 151.300 M200.992 167.700 L 197.400 171.400 201.100 167.808 C 203.135 165.833,204.800 164.168,204.800 164.108 C 204.800 163.818,204.328 164.264,200.992 167.700 M184.191 184.500 L 181.000 187.800 184.300 184.609 C 186.115 182.855,187.600 181.370,187.600 181.309 C 187.600 181.018,187.154 181.435,184.191 184.500 M124.589 186.515 C 123.690 187.576,122.400 189.542,122.400 189.851 C 122.400 190.031,122.698 189.733,123.061 189.189 C 123.425 188.645,124.179 187.705,124.736 187.100 C 125.294 186.495,125.581 186.007,125.375 186.015 C 125.169 186.024,124.815 186.249,124.589 186.515 M120.267 194.267 C 120.120 194.413,120.018 195.088,120.041 195.767 L 120.082 197.000 120.410 195.603 C 120.753 194.147,120.717 193.816,120.267 194.267 M119.728 200.000 C 119.728 201.430,119.801 202.015,119.889 201.300 C 119.978 200.585,119.978 199.415,119.889 198.700 C 119.801 197.985,119.728 198.570,119.728 200.000 M169.791 198.810 L 168.631 200.020 170.409 201.710 L 172.187 203.400 170.615 201.703 L 169.044 200.007 170.197 198.803 C 170.831 198.141,171.260 197.600,171.150 197.600 C 171.040 197.600,170.428 198.144,169.791 198.810 M120.000 204.310 C 120.000 204.993,120.177 205.662,120.394 205.796 C 120.640 205.948,120.694 205.545,120.537 204.720 C 120.200 202.951,120.000 202.799,120.000 204.310 M122.400 210.149 C 122.400 210.504,123.874 212.690,124.658 213.500 C 125.642 214.515,125.714 213.962,124.736 212.900 C 124.179 212.295,123.425 211.355,123.061 210.811 C 122.698 210.267,122.400 209.969,122.400 210.149 M184.200 215.600 C 186.392 217.800,188.275 219.600,188.385 219.600 C 188.495 219.600,186.792 217.800,184.600 215.600 C 182.408 213.400,180.525 211.600,180.415 211.600 C 180.305 211.600,182.008 213.400,184.200 215.600 M165.200 254.128 C 187.090 276.086,205.720 294.614,206.600 295.303 C 207.480 295.991,208.105 296.475,207.989 296.377 C 207.874 296.280,189.244 277.751,166.589 255.203 L 125.400 214.206 165.200 254.128 M201.000 232.400 C 203.412 234.820,205.476 236.800,205.586 236.800 C 205.696 236.800,203.812 234.820,201.400 232.400 C 198.988 229.980,196.924 228.000,196.814 228.000 C 196.704 228.000,198.588 229.980,201.000 232.400 M217.400 248.800 C 219.812 251.220,221.876 253.200,221.986 253.200 C 222.096 253.200,220.212 251.220,217.800 248.800 C 215.388 246.380,213.324 244.400,213.214 244.400 C 213.104 244.400,214.988 246.380,217.400 248.800 M232.400 263.791 C 233.610 265.106,234.645 266.261,234.700 266.357 C 234.755 266.454,234.885 266.448,234.990 266.344 C 235.094 266.240,234.059 265.085,232.690 263.777 L 230.200 261.400 232.400 263.791 M237.400 270.000 C 237.741 270.660,238.111 271.200,238.221 271.200 C 238.331 271.200,238.141 270.660,237.800 270.000 C 237.459 269.340,237.089 268.800,236.979 268.800 C 236.869 268.800,237.059 269.340,237.400 270.000 M240.109 280.000 C 240.109 280.990,240.187 281.395,240.282 280.900 C 240.378 280.405,240.378 279.595,240.282 279.100 C 240.187 278.605,240.109 279.010,240.109 280.000 M237.400 290.000 C 237.059 290.660,236.869 291.200,236.979 291.200 C 237.089 291.200,237.459 290.660,237.800 290.000 C 238.141 289.340,238.331 288.800,238.221 288.800 C 238.111 288.800,237.741 289.340,237.400 290.000 M208.400 296.718 C 208.400 297.177,213.372 299.604,214.266 299.581 C 214.670 299.570,214.204 299.283,213.232 298.943 C 212.259 298.602,210.774 297.889,209.932 297.357 C 209.089 296.825,208.400 296.538,208.400 296.718 M230.297 297.166 C 228.553 298.284,228.469 298.539,230.100 297.764 C 230.925 297.372,231.600 296.905,231.600 296.726 C 231.600 296.321,231.630 296.311,230.297 297.166 M226.400 299.025 C 225.509 299.362,225.291 299.558,225.800 299.563 C 226.240 299.568,227.050 299.314,227.600 299.000 C 228.822 298.301,228.283 298.313,226.400 299.025 M218.100 300.294 C 219.145 300.376,220.855 300.376,221.900 300.294 C 222.945 300.212,222.090 300.144,220.000 300.144 C 217.910 300.144,217.055 300.212,218.100 300.294 " stroke="none" fill="#54acec" fill-rule="evenodd"></path><path id="path4" d="M216.476 100.340 C 215.968 100.483,217.554 100.600,220.000 100.600 C 222.446 100.600,224.032 100.483,223.524 100.340 C 223.016 100.197,221.430 100.080,220.000 100.080 C 218.570 100.080,216.984 100.197,216.476 100.340 M213.400 101.200 C 213.108 101.673,213.499 101.673,214.600 101.200 C 215.371 100.869,215.369 100.855,214.524 100.828 C 214.042 100.813,213.536 100.980,213.400 101.200 M225.400 101.200 C 226.501 101.673,226.892 101.673,226.600 101.200 C 226.464 100.980,225.958 100.813,225.476 100.828 C 224.631 100.855,224.629 100.869,225.400 101.200 M209.344 103.169 C 208.653 103.590,207.965 104.133,207.816 104.374 C 207.592 104.737,210.175 103.158,210.756 102.577 C 211.147 102.187,210.533 102.444,209.344 103.169 M229.200 102.590 C 229.200 102.694,229.717 103.047,230.348 103.373 C 231.633 104.037,234.972 107.165,236.355 109.000 C 236.852 109.660,237.128 109.930,236.968 109.600 C 235.786 107.169,229.200 101.226,229.200 102.590 M165.584 146.216 C 142.823 168.977,124.294 187.600,124.407 187.600 C 124.672 187.600,207.199 105.066,207.066 104.933 C 207.011 104.878,188.344 123.455,165.584 146.216 M238.868 114.600 C 238.862 115.040,239.011 115.760,239.200 116.200 C 239.638 117.219,239.638 116.168,239.200 114.800 C 238.943 113.996,238.877 113.957,238.868 114.600 M239.728 120.000 C 239.728 121.430,239.801 122.015,239.889 121.300 C 239.978 120.585,239.978 119.415,239.889 118.700 C 239.801 117.985,239.728 118.570,239.728 120.000 M239.000 124.400 C 238.848 125.091,238.807 125.741,238.909 125.842 C 239.011 125.944,239.209 125.453,239.350 124.750 C 239.683 123.083,239.360 122.760,239.000 124.400 M236.367 130.900 C 236.114 131.395,220.717 147.013,202.153 165.608 C 183.589 184.202,168.400 199.680,168.400 200.004 C 168.400 200.328,183.402 215.625,201.738 233.997 C 220.074 252.369,235.569 268.030,236.171 268.800 C 236.933 269.775,237.120 269.896,236.787 269.200 C 236.525 268.650,221.120 252.988,202.555 234.395 C 183.990 215.802,168.800 200.324,168.800 200.000 C 168.800 199.676,183.990 184.198,202.555 165.605 C 232.108 136.008,237.925 130.000,237.028 130.000 C 236.918 130.000,236.621 130.405,236.367 130.900 M120.629 195.029 C 120.481 195.615,120.451 196.184,120.561 196.294 C 120.671 196.404,120.881 196.015,121.029 195.429 C 121.176 194.842,121.206 194.273,121.096 194.163 C 120.986 194.053,120.776 194.442,120.629 195.029 M120.109 200.000 C 120.109 200.990,120.187 201.395,120.282 200.900 C 120.378 200.405,120.378 199.595,120.282 199.100 C 120.187 198.605,120.109 199.010,120.109 200.000 M120.434 204.000 C 120.446 204.330,120.611 204.960,120.800 205.400 L 121.144 206.200 121.166 205.400 C 121.178 204.960,121.013 204.330,120.800 204.000 C 120.455 203.467,120.415 203.467,120.434 204.000 M165.584 253.784 C 188.344 276.545,207.011 295.122,207.066 295.067 C 207.199 294.934,124.672 212.400,124.407 212.400 C 124.294 212.400,142.823 231.023,165.584 253.784 M238.868 274.600 C 238.862 275.040,239.011 275.760,239.200 276.200 C 239.638 277.219,239.638 276.168,239.200 274.800 C 238.943 273.996,238.877 273.957,238.868 274.600 M239.728 280.000 C 239.728 281.430,239.801 282.015,239.889 281.300 C 239.978 280.585,239.978 279.415,239.889 278.700 C 239.801 277.985,239.728 278.570,239.728 280.000 M239.000 284.400 C 238.848 285.091,238.807 285.741,238.909 285.842 C 239.011 285.944,239.209 285.453,239.350 284.750 C 239.491 284.047,239.531 283.398,239.441 283.308 C 239.350 283.217,239.152 283.709,239.000 284.400 M235.793 291.610 C 234.622 293.299,231.824 295.830,230.128 296.731 C 229.579 297.024,229.230 297.364,229.354 297.487 C 229.946 298.079,235.597 292.888,236.962 290.500 C 237.603 289.378,236.834 290.108,235.793 291.610 M207.982 295.778 C 208.290 296.149,209.095 296.734,209.771 297.077 C 211.295 297.852,211.052 297.567,209.000 296.174 C 208.132 295.585,207.674 295.407,207.982 295.778 M213.400 298.800 C 213.536 299.020,214.042 299.187,214.524 299.172 C 215.369 299.145,215.371 299.131,214.600 298.800 C 213.499 298.327,213.108 298.327,213.400 298.800 M225.400 298.800 C 224.629 299.131,224.631 299.145,225.476 299.172 C 225.958 299.187,226.464 299.020,226.600 298.800 C 226.892 298.327,226.501 298.327,225.400 298.800 M216.476 299.660 C 216.984 299.803,218.570 299.920,220.000 299.920 C 221.430 299.920,223.016 299.803,223.524 299.660 C 224.032 299.517,222.446 299.400,220.000 299.400 C 217.554 299.400,215.968 299.517,216.476 299.660 " stroke="none" fill="#98c4e4" fill-rule="evenodd"></path></g></svg>